<svg width="34" height="34" viewBox="0 0 34 34" fill="none" xmlns="http://www.w3.org/2000/svg">
<path d="M30.6989 1.40186H2.93633C2.47614 1.40186 2.03479 1.6072 1.70939 1.97272C1.38398 2.33823 1.20117 2.83398 1.20117 3.3509L1.20117 13.0961C1.20117 13.613 1.38398 14.1088 1.70939 14.4743C2.03479 14.8398 2.47614 15.0452 2.93633 15.0452H30.6989C31.1591 15.0452 31.6005 14.8398 31.9259 14.4743C32.2513 14.1088 32.4341 13.613 32.4341 13.0961V3.3509C32.4341 2.83398 32.2513 2.33823 31.9259 1.97272C31.6005 1.6072 31.1591 1.40186 30.6989 1.40186ZM30.6989 13.0961H2.93633V3.3509H30.6989V13.0961ZM5.10529 11.1471H28.53C28.645 11.1471 28.7554 11.0957 28.8367 11.0044C28.9181 10.913 28.9638 10.7891 28.9638 10.6598V9.6853C28.9638 9.55607 28.9181 9.43213 28.8367 9.34075C28.7554 9.24937 28.645 9.19804 28.53 9.19804H5.10529C4.99024 9.19804 4.8799 9.24937 4.79855 9.34075C4.7172 9.43213 4.6715 9.55607 4.6715 9.6853V10.6598C4.6715 10.7891 4.7172 10.913 4.79855 11.0044C4.8799 11.0957 4.99024 11.1471 5.10529 11.1471ZM13.3473 27.2267C13.3473 28.1313 13.0274 28.9989 12.4579 29.6385C11.8885 30.2782 11.1161 30.6375 10.3108 30.6375H9.44319C8.99041 30.6369 8.54347 30.5227 8.135 30.3033C7.72652 30.0838 7.36681 29.7647 7.08212 29.3693C6.79743 28.9738 6.59494 28.5119 6.48943 28.0173C6.38393 27.5227 6.37806 27.0079 6.47227 26.5104C6.76291 24.9159 8.08163 23.8159 9.53049 23.8159H10.3108C10.4258 23.8159 10.5362 23.7645 10.6175 23.6732C10.6989 23.5818 10.7446 23.4578 10.7446 23.3286V22.3541C10.7446 22.2249 10.6989 22.1009 10.6175 22.0095C10.5362 21.9182 10.4258 21.8668 10.3108 21.8668H9.44319C8.7766 21.8676 8.11753 22.0251 7.50837 22.3291C6.89922 22.6332 6.35346 23.0771 5.90622 23.6323C5.45897 24.1875 5.12013 24.8418 4.9115 25.5529C4.70286 26.264 4.62905 27.0164 4.69481 27.7615C4.93611 30.5462 7.16579 32.5866 9.6552 32.5866H10.3108C11.5763 32.5866 12.79 32.0219 13.6849 31.0167C14.5797 30.0115 15.0825 28.6482 15.0825 27.2267V16.9942H13.3473V27.2267ZM23.9806 19.9178H23.3245C23.2094 19.9178 23.0991 19.9691 23.0177 20.0605C22.9364 20.1519 22.8907 20.2758 22.8907 20.405V21.3796C22.8907 21.5088 22.9364 21.6327 23.0177 21.7241C23.0991 21.8155 23.2094 21.8668 23.3245 21.8668H24.1921C24.6448 21.8675 25.0918 21.9817 25.5003 22.2011C25.9087 22.4205 26.2684 22.7396 26.5531 23.1351C26.8378 23.5306 27.0403 23.9925 27.1458 24.4871C27.2513 24.9817 27.2572 25.4965 27.163 25.9939C26.8723 27.5885 25.5536 28.6885 24.1048 28.6885H23.3245C22.5191 28.6885 21.7468 28.3291 21.1773 27.6895C20.6079 27.0498 20.288 26.1823 20.288 25.2777V16.9942H18.5528V25.2777C18.5528 26.6992 19.0555 28.0625 19.9504 29.0677C20.8453 30.0728 22.059 30.6375 23.3245 30.6375H24.1921C24.8587 30.6368 25.5177 30.4793 26.1269 30.1752C26.736 29.8712 27.2818 29.4272 27.729 28.872C28.1763 28.3168 28.5151 27.6626 28.7238 26.9515C28.9324 26.2403 29.0062 25.488 28.9404 24.7429C28.6991 21.9582 26.4695 19.9178 23.9806 19.9178Z" fill="white"/>
</svg>
