<svg width="34" height="34" viewBox="0 0 34 34" fill="none" xmlns="http://www.w3.org/2000/svg">
<path d="M31.0317 1.21429H2.96826C2.50307 1.21429 2.05695 1.42218 1.72801 1.79223C1.39908 2.16228 1.21429 2.66417 1.21429 3.1875L1.21429 13.0536C1.21429 13.5769 1.39908 14.0788 1.72801 14.4488C2.05695 14.8189 2.50307 15.0268 2.96826 15.0268H31.0317C31.4969 15.0268 31.9431 14.8189 32.272 14.4488C32.6009 14.0788 32.7857 13.5769 32.7857 13.0536V3.1875C32.7857 2.66417 32.6009 2.16228 32.272 1.79223C31.9431 1.42218 31.4969 1.21429 31.0317 1.21429V1.21429ZM31.0317 13.0536H2.96826V3.1875H31.0317V13.0536ZM5.16072 11.0804H28.8393C28.9556 11.0804 29.0671 11.0284 29.1493 10.9359C29.2316 10.8434 29.2778 10.7179 29.2778 10.5871V9.60045C29.2778 9.46961 29.2316 9.34414 29.1493 9.25163C29.0671 9.15912 28.9556 9.10714 28.8393 9.10714H5.16072C5.04442 9.10714 4.93289 9.15912 4.85065 9.25163C4.76842 9.34414 4.72222 9.46961 4.72222 9.60045V10.5871C4.72222 10.7179 4.76842 10.8434 4.85065 10.9359C4.93289 11.0284 5.04442 11.0804 5.16072 11.0804ZM13.4921 27.3594C13.4921 28.2752 13.1687 29.1535 12.593 29.8011C12.0174 30.4487 11.2367 30.8125 10.4226 30.8125H9.54564C9.08795 30.8118 8.63617 30.6962 8.22326 30.4741C7.81036 30.2519 7.44675 29.9289 7.15898 29.5285C6.8712 29.1281 6.66652 28.6605 6.55987 28.1598C6.45322 27.659 6.44729 27.1378 6.54251 26.6342C6.8363 25.0199 8.16932 23.9062 9.63388 23.9062H10.4226C10.5389 23.9062 10.6504 23.8543 10.7327 23.7618C10.8149 23.6693 10.8611 23.5438 10.8611 23.4129V22.4263C10.8611 22.2955 10.8149 22.17 10.7327 22.0775C10.6504 21.985 10.5389 21.933 10.4226 21.933H9.54564C8.87182 21.9338 8.2056 22.0932 7.58985 22.4011C6.97409 22.7089 6.42242 23.1583 5.97033 23.7204C5.51823 24.2825 5.17572 24.9449 4.96483 25.6648C4.75393 26.3848 4.67932 27.1464 4.74579 27.9008C4.9897 30.72 7.24355 32.7857 9.75995 32.7857H10.4226C11.7019 32.7857 12.9287 32.214 13.8333 31.1964C14.7379 30.1787 15.246 28.7985 15.246 27.3594V17H13.4921V27.3594ZM24.2406 19.9598H23.5774C23.4611 19.9598 23.3496 20.0118 23.2673 20.1043C23.1851 20.1968 23.1389 20.3223 23.1389 20.4531V21.4397C23.1389 21.5706 23.1851 21.696 23.2673 21.7886C23.3496 21.8811 23.4611 21.933 23.5774 21.933H24.4544C24.9121 21.9337 25.3638 22.0493 25.7767 22.2715C26.1896 22.4936 26.5533 22.8166 26.841 23.217C27.1288 23.6174 27.3335 24.085 27.4401 24.5858C27.5468 25.0865 27.5527 25.6077 27.4575 26.1113C27.1637 27.7257 25.8307 28.8393 24.3661 28.8393H23.5774C22.7633 28.8393 21.9826 28.4755 21.407 27.8279C20.8313 27.1803 20.5079 26.302 20.5079 25.3862V17H18.754V25.3862C18.754 26.8253 19.2621 28.2055 20.1667 29.2232C21.0713 30.2408 22.2981 30.8125 23.5774 30.8125H24.4544C25.1282 30.8117 25.7944 30.6523 26.4102 30.3445C27.0259 30.0366 27.5776 29.5872 28.0297 29.0251C28.4818 28.463 28.8243 27.8007 29.0352 27.0807C29.2461 26.3608 29.3207 25.5991 29.2542 24.8448C29.0103 22.0255 26.7565 19.9598 24.2406 19.9598Z" fill="white"/>
</svg>
