<svg width="34" height="34" viewBox="0 0 34 34" fill="none" xmlns="http://www.w3.org/2000/svg">
<path d="M17.9482 12.7431V0.884644H16.027V12.7431C8.64883 13.2027 2.66237 18.8883 1.63691 26.211C1.4718 27.3917 2.3982 28.4481 3.57256 28.4481H12.2818C12.5034 29.5595 13.0928 30.5582 13.9503 31.2756C14.8078 31.9929 15.8807 32.3846 16.9876 32.3846C18.0945 32.3846 19.1674 31.9929 20.0249 31.2756C20.8824 30.5582 21.4718 29.5595 21.6934 28.4481H30.4027C31.577 28.4481 32.504 27.3911 32.3383 26.2104C31.3129 18.8883 25.3264 13.2027 17.9482 12.7431ZM16.9876 30.4169C16.3918 30.4167 15.8107 30.2273 15.3243 29.8747C14.8379 29.5222 14.4701 29.0237 14.2715 28.4481H19.7038C19.5052 29.0237 19.1373 29.5222 18.6509 29.8747C18.1645 30.2273 17.5834 30.4167 16.9876 30.4169V30.4169ZM3.53894 26.4904C4.48275 19.7496 10.2633 14.6664 16.9876 14.6664C23.7119 14.6664 29.4925 19.749 30.4027 26.4793L3.53894 26.4904Z" fill="#777794"/>
</svg>
