<svg width="34" height="34" viewBox="0 0 34 34" fill="none" xmlns="http://www.w3.org/2000/svg">
<path d="M30.5883 15.0895H28.7299L29.1804 17.0381H13.2157V18.9866H30.336C30.473 18.9866 30.6081 18.9528 30.7311 18.8879C30.8542 18.823 30.9619 18.7286 31.0462 18.6119C31.1304 18.4952 31.189 18.3593 31.2174 18.2144C31.2458 18.0696 31.2433 17.9197 31.2101 17.7761L30.5883 15.0895ZM30.5883 9.24379H28.7299L29.1804 11.1924H13.2157V13.1409H30.336C30.473 13.1409 30.6081 13.1071 30.7311 13.0422C30.8542 12.9773 30.9619 12.8829 31.0462 12.7662C31.1304 12.6495 31.189 12.5136 31.2174 12.3687C31.2458 12.2239 31.2433 12.074 31.2101 11.9304L30.5883 9.24379ZM30.336 1.44952H3.3039C3.06492 1.44952 2.83573 1.55217 2.66675 1.73488C2.49777 1.9176 2.40283 2.16541 2.40283 2.42381V6.32094C2.40283 6.57934 2.49777 6.82715 2.66675 7.00986C2.83573 7.19258 3.06492 7.29523 3.3039 7.29523H9.6114V11.1924H4.4584L4.90894 9.24379H3.05048L2.43099 11.9304C2.39781 12.0739 2.3953 12.2237 2.42364 12.3684C2.45198 12.5132 2.51043 12.649 2.59456 12.7657C2.67869 12.8824 2.78629 12.9768 2.90919 13.0418C3.0321 13.1068 3.16708 13.1407 3.3039 13.1409H9.6114V17.0381H4.4584L4.90894 15.0895H3.05048L2.43099 17.7761C2.39781 17.9196 2.3953 18.0694 2.42364 18.2142C2.45198 18.3589 2.51043 18.4947 2.59456 18.6114C2.67869 18.7281 2.78629 18.8225 2.90919 18.8875C3.0321 18.9525 3.16708 18.9864 3.3039 18.9866H9.6114V26.9599C9.01019 27.1898 8.50349 27.642 8.18083 28.2367C7.85818 28.8314 7.74036 29.5303 7.84819 30.2099C7.95602 30.8894 8.28257 31.5059 8.77011 31.9503C9.25765 32.3947 9.8748 32.6385 10.5125 32.6385C11.1501 32.6385 11.7673 32.3947 12.2548 31.9503C12.7424 31.5059 13.0689 30.8894 13.1768 30.2099C13.2846 29.5303 13.1668 28.8314 12.8441 28.2367C12.5215 27.642 12.0148 27.1898 11.4135 26.9599V7.29523H30.336C30.575 7.29523 30.8042 7.19258 30.9732 7.00986C31.1422 6.82715 31.2371 6.57934 31.2371 6.32094V2.42381C31.2371 2.16541 31.1422 1.9176 30.9732 1.73488C30.8042 1.55217 30.575 1.44952 30.336 1.44952V1.44952ZM10.5125 30.678C10.3343 30.678 10.16 30.6209 10.0119 30.5138C9.86368 30.4068 9.74819 30.2546 9.67999 30.0766C9.61179 29.8986 9.59395 29.7027 9.62872 29.5137C9.66348 29.3247 9.7493 29.1511 9.87532 29.0148C10.0013 28.8786 10.1619 28.7858 10.3367 28.7482C10.5115 28.7106 10.6926 28.7299 10.8573 28.8036C11.0219 28.8774 11.1627 29.0022 11.2617 29.1625C11.3607 29.3227 11.4135 29.5111 11.4135 29.7037C11.4135 29.9621 11.3186 30.21 11.1496 30.3927C10.9806 30.5754 10.7515 30.678 10.5125 30.678ZM29.435 5.34666H4.20497V3.39809H29.435V5.34666Z" fill="white"/>
</svg>
