<svg width="42" height="42" viewBox="0 0 42 42" fill="none" xmlns="http://www.w3.org/2000/svg">
<rect x="3" y="1" width="36" height="2" rx="1" fill="white"/>
<path d="M21 3C20.8333 8.27273 17.8 20.0182 7 24.8182C9.16667 26.0909 12.5 30.7091 12.5 39H5" stroke="white" stroke-width="2"/>
<path d="M21 3C21.1667 8.27273 24.2 20.0182 35 24.8182C32.8333 26.0909 29.5 30.7091 29.5 39H37" stroke="white" stroke-width="2"/>
<path d="M6 3L6 39C6 39.5523 5.55228 40 5 40V40C4.44771 40 4 39.5523 4 39L4 3L6 3Z" fill="white"/>
<path d="M38 3L38 39C38 39.5523 37.5523 40 37 40V40C36.4477 40 36 39.5523 36 39L36 3L38 3Z" fill="white"/>
</svg>
