<svg width="28" height="28" viewBox="0 0 28 28" fill="none" xmlns="http://www.w3.org/2000/svg">
<path d="M22.1667 2.33331H5.83333C5.189 2.33331 4.66667 2.85565 4.66667 3.49998V24.5C4.66667 25.1443 5.189 25.6666 5.83333 25.6666H22.1667C22.811 25.6666 23.3333 25.1443 23.3333 24.5V3.49998C23.3333 2.85565 22.811 2.33331 22.1667 2.33331Z" stroke="white"/>
<path d="M4.66667 6.99998C4.66667 7.64433 5.189 8.16665 5.83333 8.16665H22.1667C22.811 8.16665 23.3333 7.64433 23.3333 6.99998V3.49998C23.3333 2.85565 22.811 2.33331 22.1667 2.33331H5.83333C5.189 2.33331 4.66667 2.85565 4.66667 3.49998V6.99998Z" fill="white" stroke="white"/>
<path d="M8.16667 6.41665C8.811 6.41665 9.33333 5.89431 9.33333 5.24998C9.33333 4.60565 8.811 4.08331 8.16667 4.08331C7.52233 4.08331 7 4.60565 7 5.24998C7 5.89431 7.52233 6.41665 8.16667 6.41665Z" fill="white"/>
<path d="M11.6667 6.41665C12.311 6.41665 12.8333 5.89431 12.8333 5.24998C12.8333 4.60565 12.311 4.08331 11.6667 4.08331C11.0223 4.08331 10.5 4.60565 10.5 5.24998C10.5 5.89431 11.0223 6.41665 11.6667 6.41665Z" fill="white"/>
<path d="M14 21C16.2552 21 18.0833 19.1718 18.0833 16.9166C18.0833 14.6615 16.2552 12.8333 14 12.8333C11.7448 12.8333 9.91666 14.6615 9.91666 16.9166C9.91666 19.1718 11.7448 21 14 21Z" fill="white" stroke="white"/>
</svg>
