<svg width="27" height="27" viewBox="0 0 27 27" fill="none" xmlns="http://www.w3.org/2000/svg">
<path d="M10.4955 14.8596H13.9008V22.7943C13.9008 23.9624 15.3555 24.5135 16.1269 23.6318L24.4694 14.1543C25.1967 13.3277 24.6127 12.0384 23.5106 12.0384H20.1053V4.10366C20.1053 2.9355 18.6506 2.38448 17.8792 3.26611L9.53673 12.7437C8.82041 13.5702 9.40449 14.8596 10.4955 14.8596Z" fill="white"/>
<path d="M9.59183 5.45918H1.87755C1.42571 5.45918 1.05102 5.08449 1.05102 4.63265C1.05102 4.18082 1.42571 3.80612 1.87755 3.80612H9.59183C10.0437 3.80612 10.4184 4.18082 10.4184 4.63265C10.4184 5.08449 10.0437 5.45918 9.59183 5.45918Z" fill="white"/>
<path d="M8.48979 23.0918H1.87755C1.42571 23.0918 1.05102 22.7171 1.05102 22.2653C1.05102 21.8135 1.42571 21.4388 1.87755 21.4388H8.48979C8.94163 21.4388 9.31632 21.8135 9.31632 22.2653C9.31632 22.7171 8.94163 23.0918 8.48979 23.0918Z" fill="white"/>
<path d="M5.18367 14.2755H1.87755C1.42571 14.2755 1.05102 13.9008 1.05102 13.449C1.05102 12.9971 1.42571 12.6224 1.87755 12.6224H5.18367C5.63551 12.6224 6.0102 12.9971 6.0102 13.449C6.0102 13.9008 5.63551 14.2755 5.18367 14.2755Z" fill="white"/>
</svg>
