<svg width="34" height="34" viewBox="0 0 34 34" fill="none" xmlns="http://www.w3.org/2000/svg">
<path d="M17.1357 1.40179C11.163 1.40179 6.91797 6.49002 6.92494 12.1362C6.92842 14.8332 7.88219 17.2932 9.4521 19.1734C10.9402 20.955 12.3697 23.8572 12.4944 24.7903L12.4979 29.3694C12.4979 29.5612 12.5525 29.7482 12.6534 29.9078L14.0754 32.1516C14.2477 32.4233 14.5378 32.5865 14.8481 32.5865H19.4227C19.7336 32.5865 20.0237 32.4233 20.1954 32.1516L21.6174 29.9078C21.7184 29.7482 21.7723 29.5606 21.7729 29.3694L21.7769 24.7903C21.9081 23.8329 23.3428 20.9416 24.8193 19.1734C26.3921 17.2896 27.3465 14.824 27.3465 12.1215C27.3465 6.20132 22.7748 1.40179 17.1357 1.40179ZM19.917 29.0728L18.9255 30.6375H15.3453L14.3538 29.0728L14.3533 28.6884H19.917V29.0728ZM19.9193 26.7394H14.3515L14.3475 24.7903H19.9216L19.9193 26.7394ZM23.4234 17.8883C22.6118 18.8604 21.3157 20.8179 20.489 22.8407H13.783C12.9557 20.8173 11.6602 18.8604 10.8485 17.8883C9.50663 16.2815 8.78898 14.2442 8.78434 12.1215C8.77389 7.43226 12.2873 3.35084 17.1357 3.35084C21.7421 3.35084 25.4899 7.28547 25.4899 12.1215C25.4899 14.2442 24.7561 16.2925 23.4234 17.8883ZM17.1357 5.29988C13.5532 5.29988 10.6379 8.36049 10.6379 12.1215C10.6379 12.66 11.0533 13.0961 11.5662 13.0961C12.079 13.0961 12.4944 12.66 12.4944 12.1215C12.4944 9.43491 14.576 7.24893 17.1357 7.24893C17.6486 7.24893 18.0639 6.81283 18.0639 6.27441C18.0639 5.73598 17.6486 5.29988 17.1357 5.29988Z" fill="white"/>
<path d="M5.6897 12.2428C5.6897 11.9884 5.60448 11.7445 5.45277 11.5646C5.30107 11.3847 5.09531 11.2837 4.88076 11.2837H1.645C1.43046 11.2837 1.2247 11.3847 1.07299 11.5646C0.921287 11.7445 0.83606 11.9884 0.83606 12.2428C0.83606 12.4972 0.921287 12.7411 1.07299 12.921C1.2247 13.1009 1.43046 13.2019 1.645 13.2019H4.88076C5.09531 13.2019 5.30107 13.1009 5.45277 12.921C5.60448 12.7411 5.6897 12.4972 5.6897 12.2428ZM27.5311 5.52887C27.6567 5.52853 27.7806 5.49386 27.8931 5.42756L31.1289 3.5093C31.3208 3.39546 31.4666 3.19591 31.5344 2.95455C31.6022 2.71318 31.5864 2.44977 31.4904 2.22226C31.4428 2.10961 31.377 2.00916 31.2968 1.92666C31.2165 1.84415 31.1233 1.7812 31.0225 1.7414C30.8189 1.66102 30.5968 1.67981 30.4049 1.79365L27.1691 3.71191C27.0061 3.80856 26.8754 3.96763 26.7982 4.16335C26.721 4.35906 26.7018 4.57996 26.7437 4.79024C26.7856 5.00052 26.8861 5.18787 27.029 5.32193C27.172 5.45599 27.3489 5.52891 27.5311 5.52887ZM32.3848 11.2837H29.149C28.9344 11.2837 28.7287 11.3847 28.577 11.5646C28.4253 11.7445 28.34 11.9884 28.34 12.2428C28.34 12.4972 28.4253 12.7411 28.577 12.921C28.7287 13.1009 28.9344 13.2019 29.149 13.2019H32.3848C32.5993 13.2019 32.8051 13.1009 32.9568 12.921C33.1085 12.7411 33.1937 12.4972 33.1937 12.2428C33.1937 11.9884 33.1085 11.7445 32.9568 11.5646C32.8051 11.3847 32.5993 11.2837 32.3848 11.2837ZM6.86065 3.71191L3.62488 1.79365C3.52987 1.73728 3.42643 1.70366 3.32046 1.69469C3.21449 1.68573 3.10806 1.7016 3.00727 1.7414C2.8037 1.82178 2.63539 1.99475 2.53939 2.22226C2.44338 2.44977 2.42753 2.71318 2.49532 2.95455C2.56311 3.19591 2.709 3.39546 2.90088 3.5093L6.13664 5.42756C6.24914 5.49386 6.37302 5.52853 6.49865 5.52887C6.68088 5.52891 6.85779 5.45599 7.0007 5.32193C7.14362 5.18787 7.24417 5.00052 7.28607 4.79024C7.32796 4.57996 7.30875 4.35906 7.23153 4.16335C7.15432 3.96763 7.02363 3.80856 6.86065 3.71191ZM31.1289 20.9763L27.8931 19.058C27.7012 18.9442 27.4789 18.9254 27.2753 19.0059C27.0717 19.0863 26.9034 19.2593 26.8074 19.4869C26.7113 19.7145 26.6955 19.978 26.7634 20.2194C26.8312 20.4609 26.9772 20.6604 27.1691 20.7743L30.4049 22.6925C30.5968 22.8064 30.819 22.8251 31.0227 22.7447C31.2263 22.6643 31.3946 22.4912 31.4906 22.2636C31.5866 22.036 31.6025 21.7725 31.5346 21.5311C31.4668 21.2897 31.3208 21.0901 31.1289 20.9763ZM6.49865 18.9567C6.37302 18.9571 6.24914 18.9917 6.13664 19.058L2.90088 20.9763C2.70893 21.0901 2.56298 21.2897 2.49514 21.5311C2.46155 21.6507 2.44815 21.7769 2.45569 21.9026C2.46324 22.0282 2.49159 22.1509 2.53913 22.2636C2.58667 22.3763 2.65247 22.4768 2.73276 22.5593C2.81305 22.6419 2.90627 22.7049 3.00709 22.7447C3.21071 22.8251 3.43293 22.8064 3.62488 22.6925L6.86065 20.7743C7.02391 20.6778 7.15488 20.5187 7.23229 20.3229C7.30971 20.127 7.32902 19.9059 7.28709 19.6954C7.24517 19.4849 7.14447 19.2974 7.00134 19.1633C6.85822 19.0292 6.68106 18.9564 6.49865 18.9567Z" fill="white"/>
</svg>
