<svg width="34" height="34" viewBox="0 0 34 34" fill="none" xmlns="http://www.w3.org/2000/svg">
<path d="M10.3214 1.21429C4.28399 1.21429 -0.00702869 6.36561 8.64324e-06 12.0818C0.00352731 14.8122 0.967642 17.3028 2.55456 19.2063C4.05879 21.0099 5.50379 23.9482 5.62988 24.8929L5.63339 29.5287C5.63339 29.7229 5.68852 29.9122 5.79056 30.0738L7.22794 32.3454C7.40211 32.6205 7.69533 32.7857 8.00908 32.7857H12.6332C12.9475 32.7857 13.2408 32.6205 13.4143 32.3454L14.8517 30.0738C14.9538 29.9122 15.0083 29.7223 15.0089 29.5287L15.013 24.8929C15.1455 23.9235 16.5958 20.9964 18.0883 19.2063C19.6782 17.2991 20.6429 14.8029 20.6429 12.067C20.6429 6.07333 16.0217 1.21429 10.3214 1.21429ZM13.1328 29.2284L12.1306 30.8125H8.51167L7.50943 29.2284L7.50884 28.8393H13.1328V29.2284ZM13.1352 26.8661H7.50709L7.50298 24.8929H13.1375L13.1352 26.8661ZM16.6773 17.9052C15.8569 18.8894 14.5468 20.8712 13.7111 22.919H6.93237C6.0961 20.8706 4.78657 18.8894 3.96613 17.9052C2.60969 16.2785 1.88426 14.2159 1.87956 12.067C1.86901 7.31954 5.42052 3.1875 10.3214 3.1875C14.9778 3.1875 18.7662 7.17093 18.7662 12.067C18.7662 14.2159 18.0244 16.2896 16.6773 17.9052ZM10.3214 5.16072C6.70014 5.16072 3.75325 8.25928 3.75325 12.067C3.75325 12.6121 4.17315 13.0536 4.69157 13.0536C5.20998 13.0536 5.62988 12.6121 5.62988 12.067C5.62988 9.34701 7.73404 7.13393 10.3214 7.13393C10.8399 7.13393 11.2597 6.69242 11.2597 6.14732C11.2597 5.60222 10.8399 5.16072 10.3214 5.16072Z" fill="white"/>
</svg>
