<svg width="103" height="58" viewBox="0 0 103 58" fill="none" xmlns="http://www.w3.org/2000/svg">
<path d="M30.3363 39.0001L26.1763 31.7721H23.9143V39.0001H20.9503V20.9301H27.1903C28.577 20.9301 29.747 21.1727 30.7003 21.6581C31.671 22.1434 32.3903 22.7934 32.8583 23.6081C33.3437 24.4227 33.5863 25.3327 33.5863 26.3381C33.5863 27.5167 33.2397 28.5914 32.5463 29.5621C31.8703 30.5154 30.8217 31.1654 29.4003 31.5121L33.8723 39.0001H30.3363ZM23.9143 29.4061H27.1903C28.2997 29.4061 29.1317 29.1287 29.6863 28.5741C30.2583 28.0194 30.5443 27.2741 30.5443 26.3381C30.5443 25.4021 30.267 24.6741 29.7123 24.1541C29.1577 23.6167 28.317 23.3481 27.1903 23.3481H23.9143V29.4061ZM47.0501 29.7181C48.0207 29.8914 48.8441 30.4027 49.5201 31.2521C50.1961 32.1014 50.5341 33.0634 50.5341 34.1381C50.5341 35.0567 50.2914 35.8887 49.8061 36.6341C49.3381 37.3621 48.6534 37.9427 47.7521 38.3761C46.8507 38.7921 45.8021 39.0001 44.6061 39.0001H37.3781V20.9301H44.2681C45.4987 20.9301 46.5561 21.1381 47.4401 21.5541C48.3241 21.9701 48.9914 22.5334 49.4421 23.2441C49.8927 23.9374 50.1181 24.7174 50.1181 25.5841C50.1181 26.6241 49.8407 27.4907 49.2861 28.1841C48.7314 28.8774 47.9861 29.3887 47.0501 29.7181ZM40.3421 28.5221H44.0081C44.9787 28.5221 45.7327 28.3054 46.2701 27.8721C46.8247 27.4214 47.1021 26.7801 47.1021 25.9481C47.1021 25.1334 46.8247 24.5007 46.2701 24.0501C45.7327 23.5821 44.9787 23.3481 44.0081 23.3481H40.3421V28.5221ZM44.3461 36.5821C45.3514 36.5821 46.1401 36.3394 46.7121 35.8541C47.2841 35.3687 47.5701 34.6927 47.5701 33.8261C47.5701 32.9421 47.2667 32.2401 46.6601 31.7201C46.0534 31.2001 45.2474 30.9401 44.2421 30.9401H40.3421V36.5821H44.3461ZM72.1829 20.9301V23.3481H67.3729V39.0001H64.4089V23.3481H59.5729V20.9301H72.1829ZM86.0787 35.3081H78.5127L77.2127 39.0001H74.1187L80.5927 20.9041H84.0247L90.4987 39.0001H87.3787L86.0787 35.3081ZM85.2467 32.8901L82.3087 24.4921L79.3447 32.8901H85.2467ZM96.2776 36.6081H102.388V39.0001H93.3136V20.9301H96.2776V36.6081Z" fill="white"/>
<circle cx="28.8723" cy="28.8723" r="27.3723" stroke="#FF7D3B" stroke-width="3"/>
<circle cx="28.8723" cy="28.8723" r="27.3723" stroke="#FF7D3B" stroke-width="3"/>
<circle cx="50.5" cy="10.4999" r="6" fill="white" stroke="#1E1E2C" stroke-width="3"/>
</svg>
