<svg width="28" height="28" viewBox="0 0 28 28" fill="none" xmlns="http://www.w3.org/2000/svg">
<path d="M23.555 16.4033L22.2367 14.21C21.945 13.7317 21.6883 12.81 21.6883 12.25V10.0683C21.6883 5.83333 18.2467 2.39166 14.0233 2.39166C9.78833 2.40333 6.34666 5.83333 6.34666 10.0683V12.2383C6.34666 12.7983 6.09 13.72 5.81 14.1983L4.49166 16.3917C3.99 17.2433 3.87333 18.2117 4.18833 19.0517C4.50333 19.9033 5.215 20.58 6.14833 20.8833C7.40833 21.3033 8.68 21.6067 9.975 21.8283C10.1033 21.8517 10.2317 21.8633 10.36 21.8867C10.5233 21.91 10.6983 21.9333 10.8733 21.9567C11.1767 22.0033 11.48 22.0383 11.795 22.0617C12.53 22.1317 13.2767 22.1667 14.0233 22.1667C14.7583 22.1667 15.4933 22.1317 16.2167 22.0617C16.485 22.0383 16.7533 22.015 17.01 21.98C17.22 21.9567 17.43 21.9333 17.64 21.8983C17.7683 21.8867 17.8967 21.8633 18.025 21.84C19.3317 21.63 20.6267 21.3033 21.8867 20.8833C22.785 20.58 23.4733 19.9033 23.8 19.04C24.1267 18.165 24.0333 17.2083 23.555 16.4033ZM14.875 11.6667C14.875 12.1567 14.4783 12.5533 13.9883 12.5533C13.4983 12.5533 13.1017 12.1567 13.1017 11.6667V8.05C13.1017 7.56 13.4983 7.16333 13.9883 7.16333C14.4783 7.16333 14.875 7.56 14.875 8.05V11.6667Z" fill="white"/>
<path d="M17.3017 23.345C16.8117 24.6983 15.5167 25.6667 14 25.6667C13.0783 25.6667 12.1683 25.2933 11.5267 24.6283C11.1533 24.2783 10.8733 23.8117 10.71 23.3333C10.8617 23.3567 11.0133 23.3683 11.1767 23.3917C11.445 23.4267 11.725 23.4617 12.005 23.485C12.67 23.5433 13.3467 23.5783 14.0233 23.5783C14.6883 23.5783 15.3533 23.5433 16.0067 23.485C16.2517 23.4617 16.4967 23.45 16.73 23.415C16.9167 23.3917 17.1033 23.3683 17.3017 23.345Z" fill="white"/>
</svg>
