<svg width="28" height="28" viewBox="0 0 28 28" fill="none" xmlns="http://www.w3.org/2000/svg">
<path d="M14 2C7.37097 2 2 7.37097 2 14C2 20.629 7.37097 26 14 26C20.629 26 26 20.629 26 14C26 7.37097 20.629 2 14 2ZM14 24.4516C8.2371 24.4516 3.54839 19.7629 3.54839 14C3.54839 8.2371 8.2371 3.54839 14 3.54839C19.7629 3.54839 24.4516 8.2371 24.4516 14C24.4516 19.7629 19.7629 24.4516 14 24.4516ZM14 8.96774C13.0047 8.96774 12.0318 9.26288 11.2042 9.81583C10.3767 10.3688 9.73168 11.1547 9.3508 12.0742C8.96992 12.9938 8.87026 14.0056 9.06444 14.9817C9.25861 15.9579 9.73788 16.8546 10.4417 17.5583C11.1454 18.2621 12.0421 18.7414 13.0183 18.9356C13.9944 19.1297 15.0062 19.0301 15.9258 18.6492C16.8453 18.2683 17.6312 17.6233 18.1842 16.7958C18.7371 15.9682 19.0323 14.9953 19.0323 14C19.0323 12.6654 18.5021 11.3854 17.5583 10.4417C16.6146 9.49792 15.3346 8.96774 14 8.96774ZM14 17.4839C13.311 17.4839 12.6374 17.2795 12.0645 16.8967C11.4915 16.5139 11.045 15.9698 10.7813 15.3332C10.5176 14.6966 10.4486 13.9961 10.5831 13.3203C10.7175 12.6445 11.0493 12.0238 11.5365 11.5365C12.0238 11.0493 12.6445 10.7175 13.3203 10.5831C13.9961 10.4486 14.6966 10.5176 15.3332 10.7813C15.9698 11.045 16.5139 11.4915 16.8967 12.0645C17.2795 12.6374 17.4839 13.311 17.4839 14C17.4828 14.9237 17.1155 15.8092 16.4623 16.4623C15.8092 17.1155 14.9237 17.4828 14 17.4839ZM14 12.8387C13.7703 12.8387 13.5458 12.9068 13.3548 13.0344C13.1638 13.162 13.015 13.3434 12.9271 13.5556C12.8392 13.7678 12.8162 14.0013 12.861 14.2266C12.9058 14.4518 13.0164 14.6587 13.1788 14.8212C13.3413 14.9836 13.5482 15.0942 13.7734 15.139C13.9987 15.1838 14.2322 15.1608 14.4444 15.0729C14.6566 14.985 14.838 14.8362 14.9656 14.6452C15.0932 14.4542 15.1613 14.2297 15.1613 14C15.1613 13.692 15.0389 13.3966 14.8212 13.1788C14.6034 12.9611 14.308 12.8387 14 12.8387Z" fill="#777794"/>
</svg>
