<svg width="42" height="42" viewBox="0 0 42 42" fill="none" xmlns="http://www.w3.org/2000/svg">
<path d="M31.125 1.5H10.875C9.97989 1.5 9.12145 1.88521 8.48851 2.57089C7.85558 3.25657 7.5 4.18655 7.5 5.15625V36.8438C7.5 37.8134 7.85558 38.7434 8.48851 39.4291C9.12145 40.1148 9.97989 40.5 10.875 40.5H31.125C32.0201 40.5 32.8786 40.1148 33.5115 39.4291C34.1444 38.7434 34.5 37.8134 34.5 36.8438V5.15625C34.5 4.18655 34.1444 3.25657 33.5115 2.57089C32.8786 1.88521 32.0201 1.5 31.125 1.5V1.5ZM32.25 36.8438C32.25 37.167 32.1315 37.477 31.9205 37.7055C31.7095 37.9341 31.4234 38.0625 31.125 38.0625H10.875C10.5766 38.0625 10.2905 37.9341 10.0795 37.7055C9.86853 37.477 9.75 37.167 9.75 36.8438V16.125H25.5V30.1406C25.5 30.3022 25.5593 30.4572 25.6648 30.5715C25.7702 30.6858 25.9133 30.75 26.0625 30.75H27.1875C27.3367 30.75 27.4798 30.6858 27.5852 30.5715C27.6907 30.4572 27.75 30.3022 27.75 30.1406V16.125H32.25V36.8438ZM32.25 13.6875H27.75V9.42188C27.75 9.26026 27.6907 9.10526 27.5852 8.99098C27.4798 8.8767 27.3367 8.8125 27.1875 8.8125H26.0625C25.9133 8.8125 25.7702 8.8767 25.6648 8.99098C25.5593 9.10526 25.5 9.26026 25.5 9.42188V13.6875H9.75V5.15625C9.75 4.83302 9.86853 4.52302 10.0795 4.29446C10.2905 4.0659 10.5766 3.9375 10.875 3.9375H31.125C31.4234 3.9375 31.7095 4.0659 31.9205 4.29446C32.1315 4.52302 32.25 4.83302 32.25 5.15625V13.6875Z" fill="white"/>
</svg>
