<svg width="28" height="28" viewBox="0 0 28 28" fill="none" xmlns="http://www.w3.org/2000/svg">
<path d="M8.44666 2.33331H6.22999C3.67499 2.33331 2.33333 3.67498 2.33333 6.21831V8.43498C2.33333 10.9783 3.67499 12.32 6.21833 12.32H8.43499C10.9783 12.32 12.32 10.9783 12.32 8.43498V6.21831C12.3317 3.67498 10.99 2.33331 8.44666 2.33331Z" fill="white"/>
<path d="M21.7817 2.33331H19.565C17.0217 2.33331 15.68 3.67498 15.68 6.21831V8.43498C15.68 10.9783 17.0217 12.32 19.565 12.32H21.7817C24.325 12.32 25.6667 10.9783 25.6667 8.43498V6.21831C25.6667 3.67498 24.325 2.33331 21.7817 2.33331Z" fill="white"/>
<path d="M21.7817 15.6683H19.565C17.0217 15.6683 15.68 17.01 15.68 19.5533V21.77C15.68 24.3133 17.0217 25.655 19.565 25.655H21.7817C24.325 25.655 25.6667 24.3133 25.6667 21.77V19.5533C25.6667 17.01 24.325 15.6683 21.7817 15.6683Z" fill="white"/>
<path d="M8.44666 15.6683H6.22999C3.67499 15.6683 2.33333 17.01 2.33333 19.5533V21.77C2.33333 24.325 3.67499 25.6667 6.21833 25.6667H8.43499C10.9783 25.6667 12.32 24.325 12.32 21.7817V19.565C12.3317 17.01 10.99 15.6683 8.44666 15.6683Z" fill="white"/>
</svg>
