<svg width="28" height="28" viewBox="0 0 28 28" fill="none" xmlns="http://www.w3.org/2000/svg">
<path d="M23.45 10.7567C21.3383 10.7567 20.475 9.26336 21.525 7.43169C22.1317 6.37003 21.77 5.01669 20.7083 4.41003L18.69 3.25503C17.7683 2.70669 16.5783 3.03336 16.03 3.95503L15.9017 4.17669C14.8517 6.00836 13.125 6.00836 12.0633 4.17669L11.935 3.95503C11.41 3.03336 10.22 2.70669 9.29834 3.25503L7.28 4.41003C6.21834 5.01669 5.85667 6.38169 6.46334 7.44336C7.525 9.26336 6.66167 10.7567 4.55 10.7567C3.33667 10.7567 2.33334 11.7484 2.33334 12.9734V15.0267C2.33334 16.24 3.325 17.2434 4.55 17.2434C6.66167 17.2434 7.525 18.7367 6.46334 20.5684C5.85667 21.63 6.21834 22.9834 7.28 23.59L9.29834 24.745C10.22 25.2934 11.41 24.9667 11.9583 24.045L12.0867 23.8234C13.1367 21.9917 14.8633 21.9917 15.925 23.8234L16.0533 24.045C16.6017 24.9667 17.7917 25.2934 18.7133 24.745L20.7317 23.59C21.7933 22.9834 22.155 21.6184 21.5483 20.5684C20.4867 18.7367 21.35 17.2434 23.4617 17.2434C24.675 17.2434 25.6783 16.2517 25.6783 15.0267V12.9734C25.6667 11.76 24.675 10.7567 23.45 10.7567ZM14 17.7917C11.9117 17.7917 10.2083 16.0884 10.2083 14C10.2083 11.9117 11.9117 10.2084 14 10.2084C16.0883 10.2084 17.7917 11.9117 17.7917 14C17.7917 16.0884 16.0883 17.7917 14 17.7917Z" fill="white"/>
</svg>
