<svg width="28" height="28" viewBox="0 0 28 28" fill="none" xmlns="http://www.w3.org/2000/svg">
<path d="M8.75636 2H7.24364C4.93091 2 4 2.98571 4 5.48286V25H12V5.48286C11.9855 2.98571 11.0545 2 8.75636 2Z" fill="white"/>
<path d="M20.1618 11H18.8382C16.8145 11 16 11.9489 16 14.2978V25H23V14.2978C23 11.9489 22.1727 11 20.1618 11Z" fill="white"/>
<path d="M1.05 25H26.95C27.524 25 28 25.2267 28 25.5C28 25.7733 27.524 26 26.95 26H1.05C0.476 26 0 25.7733 0 25.4933C0 25.2133 0.476 25 1.05 25Z" fill="white"/>
</svg>
