<svg width="30" height="30" viewBox="0 0 30 30" fill="none" xmlns="http://www.w3.org/2000/svg">
<path d="M6.22097 18.9355L3.3999 18.2094C3.17507 18.1535 3.04124 17.9301 3.10013 17.7117L3.3196 16.9246C3.37849 16.7062 3.61402 16.5793 3.83885 16.6352L8.2926 17.7828L13.3138 15L8.2926 12.2172L3.83885 13.3648C3.61402 13.4207 3.37849 13.2938 3.3196 13.0754L3.10013 12.2883C3.04124 12.0699 3.17507 11.8465 3.3999 11.7906L6.22097 11.0645L3.2286 9.40391C3.02518 9.29219 2.9556 9.04336 3.07336 8.85039L3.49626 8.14453C3.61402 7.95156 3.87097 7.88555 4.07439 7.99727L7.06675 9.65781L6.31197 6.95117C6.25309 6.73281 6.38691 6.50937 6.61174 6.45352L7.43076 6.24531C7.65559 6.18945 7.89112 6.31641 7.95001 6.53477L9.14374 10.8105L14.1649 13.5934V8.02266L10.8995 4.89453C10.7336 4.73711 10.7336 4.47813 10.8995 4.3207L11.4991 3.74688C11.665 3.58945 11.9327 3.58945 12.0986 3.74688L14.1649 5.72734V2.40625C14.1649 2.18281 14.3523 2 14.5878 2H15.4336C15.6691 2 15.8565 2.18281 15.8565 2.40625V5.72734L17.9228 3.74688C18.0887 3.58945 18.3564 3.58945 18.5223 3.74688L19.1219 4.3207C19.2878 4.47813 19.2878 4.73711 19.1219 4.89453L15.8618 8.02773V13.5984L20.883 10.8156L22.0661 6.52969C22.1249 6.31133 22.3605 6.18437 22.5853 6.24023L23.4043 6.44844C23.6291 6.5043 23.763 6.72773 23.7041 6.94609L22.9493 9.65273L25.9417 7.99219C26.1451 7.88047 26.402 7.94648 26.5198 8.13945L26.9427 8.84531C27.0605 9.03828 26.9909 9.28711 26.7875 9.39883L23.7951 11.0594L26.6108 11.7906C26.8356 11.8465 26.9695 12.0699 26.9106 12.2883L26.6911 13.0754C26.6322 13.2938 26.3967 13.4207 26.1719 13.3648L21.7181 12.2172L16.6969 15L21.7181 17.7828L26.1719 16.6352C26.3967 16.5793 26.6322 16.7062 26.6911 16.9246L26.9106 17.7117C26.9695 17.9301 26.8356 18.1535 26.6108 18.2094L23.7897 18.9355L26.7821 20.591C26.9855 20.7027 27.0551 20.9516 26.9373 21.1445L26.5145 21.8504C26.3967 22.0434 26.1397 22.1094 25.9363 21.9977L22.944 20.3371L23.6987 23.0437C23.7576 23.2621 23.6238 23.4855 23.399 23.5414L22.5799 23.7496C22.3551 23.8055 22.1196 23.6785 22.0607 23.4602L20.867 19.1844L15.8458 16.4016V21.9723L19.1112 25.1055C19.2771 25.2629 19.2771 25.5219 19.1112 25.6793L18.5116 26.2531C18.3457 26.4105 18.078 26.4105 17.9121 26.2531L15.8458 24.2727V27.5938C15.8458 27.8172 15.6584 28 15.4229 28H14.5771C14.3416 28 14.1542 27.8172 14.1542 27.5938V24.2727L12.0879 26.2531C11.922 26.4105 11.6543 26.4105 11.4884 26.2531L10.8888 25.6793C10.7229 25.5219 10.7229 25.2629 10.8888 25.1055L14.1489 21.9723V16.4066L9.12768 19.1895L7.93395 23.4652C7.87506 23.6836 7.63953 23.8105 7.4147 23.7547L6.59568 23.5465C6.37085 23.4906 6.23703 23.2672 6.29591 23.0488L7.05069 20.3422L4.05833 22.0027C3.85491 22.1145 3.59797 22.0484 3.4802 21.8555L3.0573 21.1496C2.93954 20.9566 3.00913 20.7078 3.21254 20.5961L6.22097 18.9355Z" fill="white"/>
</svg>
