<svg width="34" height="34" viewBox="0 0 34 34" fill="none" xmlns="http://www.w3.org/2000/svg">
<path d="M27.3589 27.414H6.27665C6.17311 27.414 6.07381 27.4555 6.00059 27.5293C5.92737 27.6031 5.88624 27.7032 5.88624 27.8076V28.5947C5.88624 28.6991 5.92737 28.7992 6.00059 28.873C6.07381 28.9468 6.17311 28.9883 6.27665 28.9883H27.3589C27.4625 28.9883 27.5618 28.9468 27.635 28.873C27.7082 28.7992 27.7493 28.6991 27.7493 28.5947V27.8076C27.7493 27.7032 27.7082 27.6031 27.635 27.5293C27.5618 27.4555 27.4625 27.414 27.3589 27.414ZM30.8726 3.8006H2.76294C2.34877 3.8006 1.95156 3.96645 1.65869 4.26168C1.36582 4.5569 1.20129 4.95732 1.20129 5.37483L1.20129 22.6913C1.20129 23.1089 1.36582 23.5093 1.65869 23.8045C1.95156 24.0997 2.34877 24.2656 2.76294 24.2656H30.8726C31.2868 24.2656 31.684 24.0997 31.9769 23.8045C32.2697 23.5093 32.4343 23.1089 32.4343 22.6913V5.37483C32.4343 4.95732 32.2697 4.5569 31.9769 4.26168C31.684 3.96645 31.2868 3.8006 30.8726 3.8006V3.8006ZM30.8726 22.6913H2.76294V5.37483H30.8726V22.6913Z" fill="white"/>
</svg>
