<svg width="28" height="28" viewBox="0 0 28 28" fill="none" xmlns="http://www.w3.org/2000/svg">
<path d="M17.5 9.76496V8.64496C17.5 5.16829 15.085 3.83829 12.145 5.68162L8.73831 7.81662C8.36498 8.03829 7.93331 8.16662 7.50165 8.16662H5.83331C3.49998 8.16662 2.33331 9.33329 2.33331 11.6666V16.3333C2.33331 18.6666 3.49998 19.8333 5.83331 19.8333H8.16665" stroke="#777794" stroke-width="1.5" stroke-linecap="round" stroke-linejoin="round"/>
<path d="M12.145 22.3183C15.085 24.1616 17.5 22.8199 17.5 19.3549V15.1083" stroke="#777794" stroke-width="1.5" stroke-linecap="round" stroke-linejoin="round"/>
<path d="M21.945 10.99C22.995 13.4983 22.68 16.4267 21 18.6667" stroke="#777794" stroke-width="1.5" stroke-linecap="round" stroke-linejoin="round"/>
<path d="M24.6751 9.09998C26.3901 13.1716 25.8767 17.9316 23.1351 21.5833" stroke="#777794" stroke-width="1.5" stroke-linecap="round" stroke-linejoin="round"/>
<path d="M25.6666 2.33337L2.33331 25.6667" stroke="#777794" stroke-width="1.5" stroke-linecap="round" stroke-linejoin="round"/>
</svg>
