<svg width="42" height="42" viewBox="0 0 42 42" fill="none" xmlns="http://www.w3.org/2000/svg">
<path d="M33.5714 1.5H8.92857C7.62143 1.5 6.36783 2.01361 5.44355 2.92785C4.51926 3.84209 4 5.08207 4 6.375L4 38.0625C4 38.709 4.25963 39.329 4.72177 39.7861C5.18392 40.2432 5.81072 40.5 6.46429 40.5H36.0357C36.6893 40.5 37.3161 40.2432 37.7782 39.7861C38.2404 39.329 38.5 38.709 38.5 38.0625V6.375C38.5 5.08207 37.9807 3.84209 37.0565 2.92785C36.1322 2.01361 34.8786 1.5 33.5714 1.5V1.5ZM36.0357 38.0625H6.46429V6.375C6.46429 5.72853 6.72391 5.10855 7.18606 4.65143C7.6482 4.19431 8.275 3.9375 8.92857 3.9375H33.5714C34.225 3.9375 34.8518 4.19431 35.3139 4.65143C35.7761 5.10855 36.0357 5.72853 36.0357 6.375V38.0625ZM10.1607 8.8125C10.4044 8.8125 10.6426 8.74102 10.8453 8.6071C11.0479 8.47319 11.2058 8.28284 11.2991 8.06015C11.3923 7.83745 11.4167 7.5924 11.3692 7.35598C11.3216 7.11957 11.2043 6.90241 11.032 6.73196C10.8597 6.56152 10.6401 6.44544 10.4011 6.39842C10.1621 6.35139 9.91434 6.37553 9.68919 6.46777C9.46405 6.56002 9.27161 6.71623 9.13622 6.91665C9.00084 7.11707 8.92857 7.3527 8.92857 7.59375C8.92857 7.91698 9.05839 8.22698 9.28946 8.45554C9.52053 8.6841 9.83393 8.8125 10.1607 8.8125ZM15.0893 8.8125C15.333 8.8125 15.5712 8.74102 15.7738 8.6071C15.9765 8.47319 16.1344 8.28284 16.2276 8.06015C16.3209 7.83745 16.3453 7.5924 16.2978 7.35598C16.2502 7.11957 16.1329 6.90241 15.9605 6.73196C15.7882 6.56152 15.5687 6.44544 15.3297 6.39842C15.0907 6.35139 14.8429 6.37553 14.6178 6.46777C14.3926 6.56002 14.2002 6.71623 14.0648 6.91665C13.9294 7.11707 13.8571 7.3527 13.8571 7.59375C13.8571 7.91698 13.987 8.22698 14.218 8.45554C14.4491 8.6841 14.7625 8.8125 15.0893 8.8125ZM21.25 11.25C18.8131 11.25 16.4308 11.9648 14.4046 13.304C12.3783 14.6431 10.7991 16.5466 9.86648 18.7735C8.9339 21.0005 8.6899 23.451 9.16532 25.8152C9.64075 28.1793 10.8143 30.3509 12.5374 32.0554C14.2606 33.7598 16.4561 34.9206 18.8462 35.3908C21.2363 35.8611 23.7138 35.6197 25.9652 34.6973C28.2167 33.7748 30.141 32.2127 31.4949 30.2085C32.8488 28.2043 33.5714 25.848 33.5714 23.4375C33.5714 21.837 33.2527 20.2522 32.6335 18.7735C32.0143 17.2949 31.1067 15.9514 29.9626 14.8196C28.8184 13.6879 27.4601 12.7902 25.9652 12.1777C24.4703 11.5652 22.8681 11.25 21.25 11.25V11.25ZM21.25 33.1875C19.3004 33.1875 17.3947 32.6157 15.7737 31.5443C14.1527 30.473 12.8893 28.9502 12.1432 27.1687C11.3971 25.3871 11.2019 23.4267 11.5823 21.5354C11.9626 19.6441 12.9014 17.9068 14.2799 16.5432C15.6585 15.1796 17.4149 14.251 19.327 13.8748C21.2391 13.4986 23.221 13.6917 25.0222 14.4297C26.8233 15.1676 28.3628 16.4173 29.4459 18.0207C30.529 19.6241 31.1071 21.5091 31.1071 23.4375C31.1043 26.0225 30.0649 28.5008 28.2169 30.3287C26.3689 32.1565 23.8634 33.1847 21.25 33.1875V33.1875ZM24.0893 23.1587C23.7213 23.536 23.2803 23.8361 22.7924 24.0411C22.3046 24.246 21.78 24.3517 21.25 24.3517C20.72 24.3517 20.1954 24.246 19.7076 24.0411C19.2197 23.8361 18.7787 23.536 18.4107 23.1587C18.0388 23.5364 17.5942 23.8365 17.1031 24.0414C16.612 24.2463 16.0843 24.3517 15.5513 24.3516C14.9576 24.3516 14.4162 24.1878 13.9103 23.9585C14.186 27.7435 17.3541 30.75 21.25 30.75C25.1459 30.75 28.314 27.7435 28.5897 23.9585C28.0838 24.187 27.5424 24.3516 26.9487 24.3516C26.4157 24.3517 25.888 24.2463 25.3969 24.0414C24.9058 23.8365 24.4612 23.5364 24.0893 23.1587V23.1587Z" fill="white"/>
</svg>
