<svg width="380" height="291" viewBox="0 0 380 291" fill="none" xmlns="http://www.w3.org/2000/svg">
<rect x="-0.5" y="0.5" width="9.65826" height="282" rx="3.5" transform="matrix(-1 0 0 1 379 8)" fill="url(#paint0_linear)" stroke="#30304D"/>
<circle r="1.5" transform="matrix(-1 0 0 1 375.5 11.5)" fill="#30304D"/>
<rect width="1" height="6" transform="matrix(-1 0 0 1 376 5)" fill="white"/>
<rect x="-0.5" y="0.5" width="9.65826" height="282" rx="3.5" transform="matrix(-1 0 0 1 366.819 8)" fill="url(#paint1_linear)" stroke="#30304D"/>
<circle r="1.5" transform="matrix(-1 0 0 1 363.319 11.5)" fill="#30304D"/>
<rect width="1" height="6" transform="matrix(-1 0 0 1 363.819 5)" fill="white"/>
<rect x="-0.5" y="0.5" width="9.65826" height="282" rx="3.5" transform="matrix(-1 0 0 1 354.638 8)" fill="url(#paint2_linear)" stroke="#30304D"/>
<circle r="1.5" transform="matrix(-1 0 0 1 351.138 11.5)" fill="#30304D"/>
<rect width="1" height="6" transform="matrix(-1 0 0 1 351.638 5)" fill="white"/>
<rect x="-0.5" y="0.5" width="9.65826" height="282" rx="3.5" transform="matrix(-1 0 0 1 342.457 8)" fill="url(#paint3_linear)" stroke="#30304D"/>
<circle r="1.5" transform="matrix(-1 0 0 1 338.957 11.5)" fill="#30304D"/>
<rect width="1" height="6" transform="matrix(-1 0 0 1 339.457 5)" fill="white"/>
<rect x="-0.5" y="0.5" width="9.65826" height="282" rx="3.5" transform="matrix(-1 0 0 1 330.277 8)" fill="url(#paint4_linear)" stroke="#30304D"/>
<circle r="1.5" transform="matrix(-1 0 0 1 326.777 11.5)" fill="#30304D"/>
<rect width="1" height="6" transform="matrix(-1 0 0 1 327.277 5)" fill="white"/>
<rect x="-0.5" y="0.5" width="9.65826" height="282" rx="3.5" transform="matrix(-1 0 0 1 318.096 8)" fill="url(#paint5_linear)" stroke="#30304D"/>
<circle r="1.5" transform="matrix(-1 0 0 1 314.596 11.5)" fill="#30304D"/>
<rect width="1" height="6" transform="matrix(-1 0 0 1 315.096 5)" fill="white"/>
<rect x="-0.5" y="0.5" width="9.65826" height="282" rx="3.5" transform="matrix(-1 0 0 1 305.915 8)" fill="url(#paint6_linear)" stroke="#30304D"/>
<circle r="1.5" transform="matrix(-1 0 0 1 302.415 11.5)" fill="#30304D"/>
<rect width="1" height="6" transform="matrix(-1 0 0 1 302.915 5)" fill="white"/>
<rect x="-0.5" y="0.5" width="9.65826" height="282" rx="3.5" transform="matrix(-1 0 0 1 293.734 8)" fill="url(#paint7_linear)" stroke="#30304D"/>
<circle r="1.5" transform="matrix(-1 0 0 1 290.234 11.5)" fill="#30304D"/>
<rect width="1" height="6" transform="matrix(-1 0 0 1 290.734 5)" fill="white"/>
<rect x="0.5" y="8.5" width="9.65827" height="282" rx="3.5" fill="url(#paint8_linear)" stroke="#30304D"/>
<circle cx="4.5" cy="11.5" r="1.5" fill="#30304D"/>
<rect x="4" y="5" width="1" height="6" fill="white"/>
<rect x="12.681" y="8.5" width="9.65827" height="282" rx="3.5" fill="url(#paint9_linear)" stroke="#30304D"/>
<circle cx="16.681" cy="11.5" r="1.5" fill="#30304D"/>
<rect x="16.181" y="5" width="1" height="6" fill="white"/>
<rect x="24.8617" y="8.5" width="9.65827" height="282" rx="3.5" fill="url(#paint10_linear)" stroke="#30304D"/>
<circle cx="28.8617" cy="11.5" r="1.5" fill="#30304D"/>
<rect x="28.3617" y="5" width="1" height="6" fill="white"/>
<rect x="37.0428" y="8.5" width="9.65827" height="282" rx="3.5" fill="url(#paint11_linear)" stroke="#30304D"/>
<circle cx="41.0428" cy="11.5" r="1.5" fill="#30304D"/>
<rect x="40.5428" y="5" width="1" height="6" fill="white"/>
<rect x="49.2233" y="8.5" width="9.65827" height="282" rx="3.5" fill="url(#paint12_linear)" stroke="#30304D"/>
<circle cx="53.2233" cy="11.5" r="1.5" fill="#30304D"/>
<rect x="52.7233" y="5" width="1" height="6" fill="white"/>
<rect x="61.4045" y="8.5" width="9.65827" height="282" rx="3.5" fill="url(#paint13_linear)" stroke="#30304D"/>
<circle cx="65.4045" cy="11.5" r="1.5" fill="#30304D"/>
<rect x="64.9045" y="5" width="1" height="6" fill="white"/>
<rect x="73.5852" y="8.5" width="9.65827" height="282" rx="3.5" fill="url(#paint14_linear)" stroke="#30304D"/>
<circle cx="77.5852" cy="11.5" r="1.5" fill="#30304D"/>
<rect x="77.0852" y="5" width="1" height="6" fill="white"/>
<rect x="85.7661" y="8.5" width="9.65827" height="282" rx="3.5" fill="url(#paint15_linear)" stroke="#30304D"/>
<circle cx="89.7661" cy="11.5" r="1.5" fill="#30304D"/>
<rect x="89.2661" y="5" width="1" height="6" fill="white"/>
<rect width="380" height="5" rx="2.5" fill="white"/>
<defs>
<linearGradient id="paint0_linear" x1="0" y1="0" x2="5.7013e-06" y2="291.906" gradientUnits="userSpaceOnUse">
<stop stop-color="#2B7FFF"/>
<stop offset="1" stop-color="#1CF1FF"/>
</linearGradient>
<linearGradient id="paint1_linear" x1="0" y1="0" x2="5.7013e-06" y2="291.906" gradientUnits="userSpaceOnUse">
<stop stop-color="#2B7FFF"/>
<stop offset="1" stop-color="#1CF1FF"/>
</linearGradient>
<linearGradient id="paint2_linear" x1="0" y1="0" x2="5.7013e-06" y2="291.906" gradientUnits="userSpaceOnUse">
<stop stop-color="#2B7FFF"/>
<stop offset="1" stop-color="#1CF1FF"/>
</linearGradient>
<linearGradient id="paint3_linear" x1="0" y1="0" x2="5.7013e-06" y2="291.906" gradientUnits="userSpaceOnUse">
<stop stop-color="#2B7FFF"/>
<stop offset="1" stop-color="#1CF1FF"/>
</linearGradient>
<linearGradient id="paint4_linear" x1="0" y1="0" x2="5.7013e-06" y2="291.906" gradientUnits="userSpaceOnUse">
<stop stop-color="#2B7FFF"/>
<stop offset="1" stop-color="#1CF1FF"/>
</linearGradient>
<linearGradient id="paint5_linear" x1="0" y1="0" x2="5.7013e-06" y2="291.906" gradientUnits="userSpaceOnUse">
<stop stop-color="#2B7FFF"/>
<stop offset="1" stop-color="#1CF1FF"/>
</linearGradient>
<linearGradient id="paint6_linear" x1="0" y1="0" x2="5.7013e-06" y2="291.906" gradientUnits="userSpaceOnUse">
<stop stop-color="#2B7FFF"/>
<stop offset="1" stop-color="#1CF1FF"/>
</linearGradient>
<linearGradient id="paint7_linear" x1="0" y1="0" x2="5.7013e-06" y2="291.906" gradientUnits="userSpaceOnUse">
<stop stop-color="#2B7FFF"/>
<stop offset="1" stop-color="#1CF1FF"/>
</linearGradient>
<linearGradient id="paint8_linear" x1="0" y1="8" x2="5.70129e-06" y2="299.906" gradientUnits="userSpaceOnUse">
<stop stop-color="#2B7FFF"/>
<stop offset="1" stop-color="#1CF1FF"/>
</linearGradient>
<linearGradient id="paint9_linear" x1="12.181" y1="8" x2="12.181" y2="299.906" gradientUnits="userSpaceOnUse">
<stop stop-color="#2B7FFF"/>
<stop offset="1" stop-color="#1CF1FF"/>
</linearGradient>
<linearGradient id="paint10_linear" x1="24.3617" y1="8" x2="24.3617" y2="299.906" gradientUnits="userSpaceOnUse">
<stop stop-color="#2B7FFF"/>
<stop offset="1" stop-color="#1CF1FF"/>
</linearGradient>
<linearGradient id="paint11_linear" x1="36.5428" y1="8" x2="36.5429" y2="299.906" gradientUnits="userSpaceOnUse">
<stop stop-color="#2B7FFF"/>
<stop offset="1" stop-color="#1CF1FF"/>
</linearGradient>
<linearGradient id="paint12_linear" x1="48.7233" y1="8" x2="48.7233" y2="299.906" gradientUnits="userSpaceOnUse">
<stop stop-color="#2B7FFF"/>
<stop offset="1" stop-color="#1CF1FF"/>
</linearGradient>
<linearGradient id="paint13_linear" x1="60.9045" y1="8" x2="60.9045" y2="299.906" gradientUnits="userSpaceOnUse">
<stop stop-color="#2B7FFF"/>
<stop offset="1" stop-color="#1CF1FF"/>
</linearGradient>
<linearGradient id="paint14_linear" x1="73.0852" y1="8" x2="73.0852" y2="299.906" gradientUnits="userSpaceOnUse">
<stop stop-color="#2B7FFF"/>
<stop offset="1" stop-color="#1CF1FF"/>
</linearGradient>
<linearGradient id="paint15_linear" x1="85.2661" y1="8" x2="85.2661" y2="299.906" gradientUnits="userSpaceOnUse">
<stop stop-color="#2B7FFF"/>
<stop offset="1" stop-color="#1CF1FF"/>
</linearGradient>
</defs>
</svg>
