<svg width="380" height="291" viewBox="0 0 380 291" fill="none" xmlns="http://www.w3.org/2000/svg">
<rect x="-0.5" y="0.5" width="2.7748" height="282" rx="1.3874" transform="matrix(-1 0 0 1 379 8)" fill="url(#paint0_linear)" stroke="#30304D"/>
<circle r="1.5" transform="matrix(-1 0 0 1 378.5 11.5)" fill="#30304D"/>
<rect width="1" height="6" transform="matrix(-1 0 0 1 379 5)" fill="white"/>
<rect x="-0.5" y="0.5" width="2.7748" height="282" rx="1.3874" transform="matrix(-1 0 0 1 374.686 8)" fill="url(#paint1_linear)" stroke="#30304D"/>
<circle r="1.5" transform="matrix(-1 0 0 1 374.186 11.5)" fill="#30304D"/>
<rect width="1" height="6" transform="matrix(-1 0 0 1 374.686 5)" fill="white"/>
<rect x="-0.5" y="0.5" width="2.7748" height="282" rx="1.3874" transform="matrix(-1 0 0 1 370.372 8)" fill="url(#paint2_linear)" stroke="#30304D"/>
<circle r="1.5" transform="matrix(-1 0 0 1 369.872 11.5)" fill="#30304D"/>
<rect width="1" height="6" transform="matrix(-1 0 0 1 370.372 5)" fill="white"/>
<rect x="-0.5" y="0.5" width="2.7748" height="282" rx="1.3874" transform="matrix(-1 0 0 1 366.058 8)" fill="url(#paint3_linear)" stroke="#30304D"/>
<circle r="1.5" transform="matrix(-1 0 0 1 365.558 11.5)" fill="#30304D"/>
<rect width="1" height="6" transform="matrix(-1 0 0 1 366.058 5)" fill="white"/>
<rect x="-0.5" y="0.5" width="2.7748" height="282" rx="1.3874" transform="matrix(-1 0 0 1 361.744 8)" fill="url(#paint4_linear)" stroke="#30304D"/>
<circle r="1.5" transform="matrix(-1 0 0 1 361.244 11.5)" fill="#30304D"/>
<rect width="1" height="6" transform="matrix(-1 0 0 1 361.744 5)" fill="white"/>
<rect x="-0.5" y="0.5" width="2.7748" height="282" rx="1.3874" transform="matrix(-1 0 0 1 357.43 8)" fill="url(#paint5_linear)" stroke="#30304D"/>
<circle r="1.5" transform="matrix(-1 0 0 1 356.93 11.5)" fill="#30304D"/>
<rect width="1" height="6" transform="matrix(-1 0 0 1 357.43 5)" fill="white"/>
<rect x="-0.5" y="0.5" width="2.7748" height="282" rx="1.3874" transform="matrix(-1 0 0 1 353.116 8)" fill="url(#paint6_linear)" stroke="#30304D"/>
<circle r="1.5" transform="matrix(-1 0 0 1 352.616 11.5)" fill="#30304D"/>
<rect width="1" height="6" transform="matrix(-1 0 0 1 353.116 5)" fill="white"/>
<rect x="-0.5" y="0.5" width="2.7748" height="282" rx="1.3874" transform="matrix(-1 0 0 1 348.802 8)" fill="url(#paint7_linear)" stroke="#30304D"/>
<circle r="1.5" transform="matrix(-1 0 0 1 348.302 11.5)" fill="#30304D"/>
<rect width="1" height="6" transform="matrix(-1 0 0 1 348.802 5)" fill="white"/>
<rect x="0.5" y="8.5" width="2.7748" height="282" rx="1.3874" fill="url(#paint8_linear)" stroke="#30304D"/>
<circle cx="1.5" cy="11.5" r="1.5" fill="#30304D"/>
<rect x="1" y="5" width="1" height="6" fill="white"/>
<rect x="4.81421" y="8.5" width="2.7748" height="282" rx="1.3874" fill="url(#paint9_linear)" stroke="#30304D"/>
<circle cx="5.81421" cy="11.5" r="1.5" fill="#30304D"/>
<rect x="5.31421" y="5" width="1" height="6" fill="white"/>
<rect x="9.12817" y="8.5" width="2.7748" height="282" rx="1.3874" fill="url(#paint10_linear)" stroke="#30304D"/>
<circle cx="10.1282" cy="11.5" r="1.5" fill="#30304D"/>
<rect x="9.62817" y="5" width="1" height="6" fill="white"/>
<rect x="13.4421" y="8.5" width="2.7748" height="282" rx="1.3874" fill="url(#paint11_linear)" stroke="#30304D"/>
<circle cx="14.4421" cy="11.5" r="1.5" fill="#30304D"/>
<rect x="13.9421" y="5" width="1" height="6" fill="white"/>
<rect x="17.7561" y="8.5" width="2.7748" height="282" rx="1.3874" fill="url(#paint12_linear)" stroke="#30304D"/>
<circle cx="18.7561" cy="11.5" r="1.5" fill="#30304D"/>
<rect x="18.2561" y="5" width="1" height="6" fill="white"/>
<rect x="22.0703" y="8.5" width="2.7748" height="282" rx="1.3874" fill="url(#paint13_linear)" stroke="#30304D"/>
<circle cx="23.0703" cy="11.5" r="1.5" fill="#30304D"/>
<rect x="22.5703" y="5" width="1" height="6" fill="white"/>
<rect x="26.3843" y="8.5" width="2.7748" height="282" rx="1.3874" fill="url(#paint14_linear)" stroke="#30304D"/>
<circle cx="27.3843" cy="11.5" r="1.5" fill="#30304D"/>
<rect x="26.8843" y="5" width="1" height="6" fill="white"/>
<rect x="30.6985" y="8.5" width="2.7748" height="282" rx="1.3874" fill="url(#paint15_linear)" stroke="#30304D"/>
<circle cx="31.6985" cy="11.5" r="1.5" fill="#30304D"/>
<rect x="31.1985" y="5" width="1" height="6" fill="white"/>
<rect width="380" height="5" rx="2.5" fill="white"/>
<defs>
<linearGradient id="paint0_linear" x1="0" y1="0" x2="1.60978e-05" y2="291.906" gradientUnits="userSpaceOnUse">
<stop stop-color="#2B7FFF"/>
<stop offset="1" stop-color="#1CF1FF"/>
</linearGradient>
<linearGradient id="paint1_linear" x1="0" y1="0" x2="1.60978e-05" y2="291.906" gradientUnits="userSpaceOnUse">
<stop stop-color="#2B7FFF"/>
<stop offset="1" stop-color="#1CF1FF"/>
</linearGradient>
<linearGradient id="paint2_linear" x1="0" y1="0" x2="1.60978e-05" y2="291.906" gradientUnits="userSpaceOnUse">
<stop stop-color="#2B7FFF"/>
<stop offset="1" stop-color="#1CF1FF"/>
</linearGradient>
<linearGradient id="paint3_linear" x1="0" y1="0" x2="1.60978e-05" y2="291.906" gradientUnits="userSpaceOnUse">
<stop stop-color="#2B7FFF"/>
<stop offset="1" stop-color="#1CF1FF"/>
</linearGradient>
<linearGradient id="paint4_linear" x1="0" y1="0" x2="1.60978e-05" y2="291.906" gradientUnits="userSpaceOnUse">
<stop stop-color="#2B7FFF"/>
<stop offset="1" stop-color="#1CF1FF"/>
</linearGradient>
<linearGradient id="paint5_linear" x1="0" y1="0" x2="1.60978e-05" y2="291.906" gradientUnits="userSpaceOnUse">
<stop stop-color="#2B7FFF"/>
<stop offset="1" stop-color="#1CF1FF"/>
</linearGradient>
<linearGradient id="paint6_linear" x1="0" y1="0" x2="1.60978e-05" y2="291.906" gradientUnits="userSpaceOnUse">
<stop stop-color="#2B7FFF"/>
<stop offset="1" stop-color="#1CF1FF"/>
</linearGradient>
<linearGradient id="paint7_linear" x1="0" y1="0" x2="1.60978e-05" y2="291.906" gradientUnits="userSpaceOnUse">
<stop stop-color="#2B7FFF"/>
<stop offset="1" stop-color="#1CF1FF"/>
</linearGradient>
<linearGradient id="paint8_linear" x1="0" y1="8" x2="1.60978e-05" y2="299.906" gradientUnits="userSpaceOnUse">
<stop stop-color="#2B7FFF"/>
<stop offset="1" stop-color="#1CF1FF"/>
</linearGradient>
<linearGradient id="paint9_linear" x1="4.31421" y1="8" x2="4.31423" y2="299.906" gradientUnits="userSpaceOnUse">
<stop stop-color="#2B7FFF"/>
<stop offset="1" stop-color="#1CF1FF"/>
</linearGradient>
<linearGradient id="paint10_linear" x1="8.62817" y1="8" x2="8.62819" y2="299.906" gradientUnits="userSpaceOnUse">
<stop stop-color="#2B7FFF"/>
<stop offset="1" stop-color="#1CF1FF"/>
</linearGradient>
<linearGradient id="paint11_linear" x1="12.9421" y1="8" x2="12.9422" y2="299.906" gradientUnits="userSpaceOnUse">
<stop stop-color="#2B7FFF"/>
<stop offset="1" stop-color="#1CF1FF"/>
</linearGradient>
<linearGradient id="paint12_linear" x1="17.2561" y1="8" x2="17.2561" y2="299.906" gradientUnits="userSpaceOnUse">
<stop stop-color="#2B7FFF"/>
<stop offset="1" stop-color="#1CF1FF"/>
</linearGradient>
<linearGradient id="paint13_linear" x1="21.5703" y1="8" x2="21.5703" y2="299.906" gradientUnits="userSpaceOnUse">
<stop stop-color="#2B7FFF"/>
<stop offset="1" stop-color="#1CF1FF"/>
</linearGradient>
<linearGradient id="paint14_linear" x1="25.8843" y1="8" x2="25.8843" y2="299.906" gradientUnits="userSpaceOnUse">
<stop stop-color="#2B7FFF"/>
<stop offset="1" stop-color="#1CF1FF"/>
</linearGradient>
<linearGradient id="paint15_linear" x1="30.1985" y1="8" x2="30.1985" y2="299.906" gradientUnits="userSpaceOnUse">
<stop stop-color="#2B7FFF"/>
<stop offset="1" stop-color="#1CF1FF"/>
</linearGradient>
</defs>
</svg>
