<svg width="380" height="291" viewBox="0 0 380 291" fill="none" xmlns="http://www.w3.org/2000/svg">
<rect x="0.5" y="8.5" width="20.0945" height="282" rx="3.5" fill="url(#paint0_linear)" stroke="#30304D"/>
<circle cx="10.5" cy="11.5" r="1.5" fill="#30304D"/>
<rect x="10" y="5" width="1" height="6" fill="white"/>
<rect x="24.6084" y="8.5" width="20.0945" height="282" rx="3.5" fill="url(#paint1_linear)" stroke="#30304D"/>
<circle cx="34.6084" cy="11.5" r="1.5" fill="#30304D"/>
<rect x="34.1084" y="5" width="1" height="6" fill="white"/>
<rect x="48.7158" y="8.5" width="20.0945" height="282" rx="3.5" fill="url(#paint2_linear)" stroke="#30304D"/>
<circle cx="58.7158" cy="11.5" r="1.5" fill="#30304D"/>
<rect x="58.2158" y="5" width="1" height="6" fill="white"/>
<rect x="72.8242" y="8.5" width="20.0945" height="282" rx="3.5" fill="url(#paint3_linear)" stroke="#30304D"/>
<circle cx="82.8242" cy="11.5" r="1.5" fill="#30304D"/>
<rect x="82.3242" y="5" width="1" height="6" fill="white"/>
<rect x="96.9315" y="8.5" width="20.0945" height="282" rx="3.5" fill="url(#paint4_linear)" stroke="#30304D"/>
<circle cx="106.932" cy="11.5" r="1.5" fill="#30304D"/>
<rect x="106.432" y="5" width="1" height="6" fill="white"/>
<rect x="121.04" y="8.5" width="20.0945" height="282" rx="3.5" fill="url(#paint5_linear)" stroke="#30304D"/>
<circle cx="131.04" cy="11.5" r="1.5" fill="#30304D"/>
<rect x="130.54" y="5" width="1" height="6" fill="white"/>
<rect x="145.148" y="8.5" width="20.0945" height="282" rx="3.5" fill="url(#paint6_linear)" stroke="#30304D"/>
<circle cx="155.148" cy="11.5" r="1.5" fill="#30304D"/>
<rect x="154.648" y="5" width="1" height="6" fill="white"/>
<rect x="169.256" y="8.5" width="20.0945" height="282" rx="3.5" fill="url(#paint7_linear)" stroke="#30304D"/>
<circle cx="179.256" cy="11.5" r="1.5" fill="#30304D"/>
<rect x="178.756" y="5" width="1" height="6" fill="white"/>
<rect x="192.5" y="8.5" width="19.8724" height="282" rx="3.5" fill="url(#paint8_linear)" stroke="#30304D"/>
<circle cx="202.5" cy="11.5" r="1.5" fill="#30304D"/>
<rect x="202" y="5" width="1" height="6" fill="white"/>
<rect x="216.355" y="8.5" width="19.8724" height="282" rx="3.5" fill="url(#paint9_linear)" stroke="#30304D"/>
<circle cx="226.355" cy="11.5" r="1.5" fill="#30304D"/>
<rect x="225.855" y="5" width="1" height="6" fill="white"/>
<rect x="240.208" y="8.5" width="19.8724" height="282" rx="3.5" fill="url(#paint10_linear)" stroke="#30304D"/>
<circle cx="250.208" cy="11.5" r="1.5" fill="#30304D"/>
<rect x="249.708" y="5" width="1" height="6" fill="white"/>
<rect x="264.063" y="8.5" width="19.8724" height="282" rx="3.5" fill="url(#paint11_linear)" stroke="#30304D"/>
<circle cx="274.063" cy="11.5" r="1.5" fill="#30304D"/>
<rect x="273.563" y="5" width="1" height="6" fill="white"/>
<rect x="287.917" y="8.5" width="19.8724" height="282" rx="3.5" fill="url(#paint12_linear)" stroke="#30304D"/>
<circle cx="297.917" cy="11.5" r="1.5" fill="#30304D"/>
<rect x="297.417" y="5" width="1" height="6" fill="white"/>
<rect x="311.771" y="8.5" width="19.8724" height="282" rx="3.5" fill="url(#paint13_linear)" stroke="#30304D"/>
<circle cx="321.771" cy="11.5" r="1.5" fill="#30304D"/>
<rect x="321.271" y="5" width="1" height="6" fill="white"/>
<rect x="335.625" y="8.5" width="19.8724" height="282" rx="3.5" fill="url(#paint14_linear)" stroke="#30304D"/>
<circle cx="345.625" cy="11.5" r="1.5" fill="#30304D"/>
<rect x="345.125" y="5" width="1" height="6" fill="white"/>
<rect x="359.479" y="8.5" width="19.8724" height="282" rx="3.5" fill="url(#paint15_linear)" stroke="#30304D"/>
<circle cx="369.479" cy="11.5" r="1.5" fill="#30304D"/>
<rect x="368.979" y="5" width="1" height="6" fill="white"/>
<rect width="380" height="5" rx="2.5" fill="white"/>
<defs>
<linearGradient id="paint0_linear" x1="0" y1="8" x2="2.88066e-06" y2="299.906" gradientUnits="userSpaceOnUse">
<stop stop-color="#2B7FFF"/>
<stop offset="1" stop-color="#1CF1FF"/>
</linearGradient>
<linearGradient id="paint1_linear" x1="24.1084" y1="8" x2="24.1084" y2="299.906" gradientUnits="userSpaceOnUse">
<stop stop-color="#2B7FFF"/>
<stop offset="1" stop-color="#1CF1FF"/>
</linearGradient>
<linearGradient id="paint2_linear" x1="48.2158" y1="8" x2="48.2158" y2="299.906" gradientUnits="userSpaceOnUse">
<stop stop-color="#2B7FFF"/>
<stop offset="1" stop-color="#1CF1FF"/>
</linearGradient>
<linearGradient id="paint3_linear" x1="72.3242" y1="8" x2="72.3242" y2="299.906" gradientUnits="userSpaceOnUse">
<stop stop-color="#2B7FFF"/>
<stop offset="1" stop-color="#1CF1FF"/>
</linearGradient>
<linearGradient id="paint4_linear" x1="96.4315" y1="8" x2="96.4315" y2="299.906" gradientUnits="userSpaceOnUse">
<stop stop-color="#2B7FFF"/>
<stop offset="1" stop-color="#1CF1FF"/>
</linearGradient>
<linearGradient id="paint5_linear" x1="120.54" y1="8" x2="120.54" y2="299.906" gradientUnits="userSpaceOnUse">
<stop stop-color="#2B7FFF"/>
<stop offset="1" stop-color="#1CF1FF"/>
</linearGradient>
<linearGradient id="paint6_linear" x1="144.648" y1="8" x2="144.648" y2="299.906" gradientUnits="userSpaceOnUse">
<stop stop-color="#2B7FFF"/>
<stop offset="1" stop-color="#1CF1FF"/>
</linearGradient>
<linearGradient id="paint7_linear" x1="168.756" y1="8" x2="168.756" y2="299.906" gradientUnits="userSpaceOnUse">
<stop stop-color="#2B7FFF"/>
<stop offset="1" stop-color="#1CF1FF"/>
</linearGradient>
<linearGradient id="paint8_linear" x1="192" y1="8" x2="192" y2="299.906" gradientUnits="userSpaceOnUse">
<stop stop-color="#2B7FFF"/>
<stop offset="1" stop-color="#1CF1FF"/>
</linearGradient>
<linearGradient id="paint9_linear" x1="215.855" y1="8" x2="215.855" y2="299.906" gradientUnits="userSpaceOnUse">
<stop stop-color="#2B7FFF"/>
<stop offset="1" stop-color="#1CF1FF"/>
</linearGradient>
<linearGradient id="paint10_linear" x1="239.708" y1="8" x2="239.708" y2="299.906" gradientUnits="userSpaceOnUse">
<stop stop-color="#2B7FFF"/>
<stop offset="1" stop-color="#1CF1FF"/>
</linearGradient>
<linearGradient id="paint11_linear" x1="263.563" y1="8" x2="263.563" y2="299.906" gradientUnits="userSpaceOnUse">
<stop stop-color="#2B7FFF"/>
<stop offset="1" stop-color="#1CF1FF"/>
</linearGradient>
<linearGradient id="paint12_linear" x1="287.417" y1="8" x2="287.417" y2="299.906" gradientUnits="userSpaceOnUse">
<stop stop-color="#2B7FFF"/>
<stop offset="1" stop-color="#1CF1FF"/>
</linearGradient>
<linearGradient id="paint13_linear" x1="311.271" y1="8" x2="311.271" y2="299.906" gradientUnits="userSpaceOnUse">
<stop stop-color="#2B7FFF"/>
<stop offset="1" stop-color="#1CF1FF"/>
</linearGradient>
<linearGradient id="paint14_linear" x1="335.125" y1="8" x2="335.125" y2="299.906" gradientUnits="userSpaceOnUse">
<stop stop-color="#2B7FFF"/>
<stop offset="1" stop-color="#1CF1FF"/>
</linearGradient>
<linearGradient id="paint15_linear" x1="358.979" y1="8" x2="358.979" y2="299.906" gradientUnits="userSpaceOnUse">
<stop stop-color="#2B7FFF"/>
<stop offset="1" stop-color="#1CF1FF"/>
</linearGradient>
</defs>
</svg>
