<svg width="380" height="291" viewBox="0 0 380 291" fill="none" xmlns="http://www.w3.org/2000/svg">
<rect x="-0.5" y="0.5" width="6.21653" height="282" rx="3.10826" transform="matrix(-1 0 0 1 379 8)" fill="url(#paint0_linear)" stroke="#30304D"/>
<circle r="1.5" transform="matrix(-1 0 0 1 376.5 11.5)" fill="#30304D"/>
<rect width="1" height="6" transform="matrix(-1 0 0 1 377 5)" fill="white"/>
<rect x="-0.5" y="0.5" width="6.21653" height="282" rx="3.10826" transform="matrix(-1 0 0 1 370.752 8)" fill="url(#paint1_linear)" stroke="#30304D"/>
<circle r="1.5" transform="matrix(-1 0 0 1 368.252 11.5)" fill="#30304D"/>
<rect width="1" height="6" transform="matrix(-1 0 0 1 368.752 5)" fill="white"/>
<rect x="-0.5" y="0.5" width="6.21653" height="282" rx="3.10826" transform="matrix(-1 0 0 1 362.505 8)" fill="url(#paint2_linear)" stroke="#30304D"/>
<circle r="1.5" transform="matrix(-1 0 0 1 360.005 11.5)" fill="#30304D"/>
<rect width="1" height="6" transform="matrix(-1 0 0 1 360.505 5)" fill="white"/>
<rect x="-0.5" y="0.5" width="6.21653" height="282" rx="3.10826" transform="matrix(-1 0 0 1 354.258 8)" fill="url(#paint3_linear)" stroke="#30304D"/>
<circle r="1.5" transform="matrix(-1 0 0 1 351.758 11.5)" fill="#30304D"/>
<rect width="1" height="6" transform="matrix(-1 0 0 1 352.258 5)" fill="white"/>
<rect x="-0.5" y="0.5" width="6.21653" height="282" rx="3.10826" transform="matrix(-1 0 0 1 346.01 8)" fill="url(#paint4_linear)" stroke="#30304D"/>
<circle r="1.5" transform="matrix(-1 0 0 1 343.51 11.5)" fill="#30304D"/>
<rect width="1" height="6" transform="matrix(-1 0 0 1 344.01 5)" fill="white"/>
<rect x="-0.5" y="0.5" width="6.21653" height="282" rx="3.10826" transform="matrix(-1 0 0 1 337.763 8)" fill="url(#paint5_linear)" stroke="#30304D"/>
<circle r="1.5" transform="matrix(-1 0 0 1 335.263 11.5)" fill="#30304D"/>
<rect width="1" height="6" transform="matrix(-1 0 0 1 335.763 5)" fill="white"/>
<rect x="-0.5" y="0.5" width="6.21653" height="282" rx="3.10826" transform="matrix(-1 0 0 1 329.515 8)" fill="url(#paint6_linear)" stroke="#30304D"/>
<circle r="1.5" transform="matrix(-1 0 0 1 327.015 11.5)" fill="#30304D"/>
<rect width="1" height="6" transform="matrix(-1 0 0 1 327.515 5)" fill="white"/>
<rect x="-0.5" y="0.5" width="6.21653" height="282" rx="3.10826" transform="matrix(-1 0 0 1 321.268 8)" fill="url(#paint7_linear)" stroke="#30304D"/>
<circle r="1.5" transform="matrix(-1 0 0 1 318.768 11.5)" fill="#30304D"/>
<rect width="1" height="6" transform="matrix(-1 0 0 1 319.268 5)" fill="white"/>
<rect x="0.5" y="8.5" width="6.21654" height="282" rx="3.10827" fill="url(#paint8_linear)" stroke="#30304D"/>
<circle cx="3.5" cy="11.5" r="1.5" fill="#30304D"/>
<rect x="3" y="5" width="1" height="6" fill="white"/>
<rect x="8.74756" y="8.5" width="6.21654" height="282" rx="3.10827" fill="url(#paint9_linear)" stroke="#30304D"/>
<circle cx="11.7476" cy="11.5" r="1.5" fill="#30304D"/>
<rect x="11.2476" y="5" width="1" height="6" fill="white"/>
<rect x="16.9949" y="8.5" width="6.21654" height="282" rx="3.10827" fill="url(#paint10_linear)" stroke="#30304D"/>
<circle cx="19.9949" cy="11.5" r="1.5" fill="#30304D"/>
<rect x="19.4949" y="5" width="1" height="6" fill="white"/>
<rect x="25.2424" y="8.5" width="6.21654" height="282" rx="3.10827" fill="url(#paint11_linear)" stroke="#30304D"/>
<circle cx="28.2424" cy="11.5" r="1.5" fill="#30304D"/>
<rect x="27.7424" y="5" width="1" height="6" fill="white"/>
<rect x="33.4897" y="8.5" width="6.21654" height="282" rx="3.10827" fill="url(#paint12_linear)" stroke="#30304D"/>
<circle cx="36.4897" cy="11.5" r="1.5" fill="#30304D"/>
<rect x="35.9897" y="5" width="1" height="6" fill="white"/>
<rect x="41.7375" y="8.5" width="6.21654" height="282" rx="3.10827" fill="url(#paint13_linear)" stroke="#30304D"/>
<circle cx="44.7375" cy="11.5" r="1.5" fill="#30304D"/>
<rect x="44.2375" y="5" width="1" height="6" fill="white"/>
<rect x="49.9849" y="8.5" width="6.21654" height="282" rx="3.10827" fill="url(#paint14_linear)" stroke="#30304D"/>
<circle cx="52.9849" cy="11.5" r="1.5" fill="#30304D"/>
<rect x="52.4849" y="5" width="1" height="6" fill="white"/>
<rect x="58.2322" y="8.5" width="6.21654" height="282" rx="3.10827" fill="url(#paint15_linear)" stroke="#30304D"/>
<circle cx="61.2322" cy="11.5" r="1.5" fill="#30304D"/>
<rect x="60.7322" y="5" width="1" height="6" fill="white"/>
<rect width="380" height="5" rx="2.5" fill="white"/>
<defs>
<linearGradient id="paint0_linear" x1="0" y1="0" x2="8.42038e-06" y2="291.906" gradientUnits="userSpaceOnUse">
<stop stop-color="#2B7FFF"/>
<stop offset="1" stop-color="#1CF1FF"/>
</linearGradient>
<linearGradient id="paint1_linear" x1="0" y1="0" x2="8.42038e-06" y2="291.906" gradientUnits="userSpaceOnUse">
<stop stop-color="#2B7FFF"/>
<stop offset="1" stop-color="#1CF1FF"/>
</linearGradient>
<linearGradient id="paint2_linear" x1="0" y1="0" x2="8.42038e-06" y2="291.906" gradientUnits="userSpaceOnUse">
<stop stop-color="#2B7FFF"/>
<stop offset="1" stop-color="#1CF1FF"/>
</linearGradient>
<linearGradient id="paint3_linear" x1="0" y1="0" x2="8.42038e-06" y2="291.906" gradientUnits="userSpaceOnUse">
<stop stop-color="#2B7FFF"/>
<stop offset="1" stop-color="#1CF1FF"/>
</linearGradient>
<linearGradient id="paint4_linear" x1="0" y1="0" x2="8.42038e-06" y2="291.906" gradientUnits="userSpaceOnUse">
<stop stop-color="#2B7FFF"/>
<stop offset="1" stop-color="#1CF1FF"/>
</linearGradient>
<linearGradient id="paint5_linear" x1="0" y1="0" x2="8.42038e-06" y2="291.906" gradientUnits="userSpaceOnUse">
<stop stop-color="#2B7FFF"/>
<stop offset="1" stop-color="#1CF1FF"/>
</linearGradient>
<linearGradient id="paint6_linear" x1="0" y1="0" x2="8.42038e-06" y2="291.906" gradientUnits="userSpaceOnUse">
<stop stop-color="#2B7FFF"/>
<stop offset="1" stop-color="#1CF1FF"/>
</linearGradient>
<linearGradient id="paint7_linear" x1="0" y1="0" x2="8.42038e-06" y2="291.906" gradientUnits="userSpaceOnUse">
<stop stop-color="#2B7FFF"/>
<stop offset="1" stop-color="#1CF1FF"/>
</linearGradient>
<linearGradient id="paint8_linear" x1="0" y1="8" x2="8.42037e-06" y2="299.906" gradientUnits="userSpaceOnUse">
<stop stop-color="#2B7FFF"/>
<stop offset="1" stop-color="#1CF1FF"/>
</linearGradient>
<linearGradient id="paint9_linear" x1="8.24756" y1="8" x2="8.24757" y2="299.906" gradientUnits="userSpaceOnUse">
<stop stop-color="#2B7FFF"/>
<stop offset="1" stop-color="#1CF1FF"/>
</linearGradient>
<linearGradient id="paint10_linear" x1="16.4949" y1="8" x2="16.4949" y2="299.906" gradientUnits="userSpaceOnUse">
<stop stop-color="#2B7FFF"/>
<stop offset="1" stop-color="#1CF1FF"/>
</linearGradient>
<linearGradient id="paint11_linear" x1="24.7424" y1="8" x2="24.7424" y2="299.906" gradientUnits="userSpaceOnUse">
<stop stop-color="#2B7FFF"/>
<stop offset="1" stop-color="#1CF1FF"/>
</linearGradient>
<linearGradient id="paint12_linear" x1="32.9897" y1="8" x2="32.9898" y2="299.906" gradientUnits="userSpaceOnUse">
<stop stop-color="#2B7FFF"/>
<stop offset="1" stop-color="#1CF1FF"/>
</linearGradient>
<linearGradient id="paint13_linear" x1="41.2375" y1="8" x2="41.2376" y2="299.906" gradientUnits="userSpaceOnUse">
<stop stop-color="#2B7FFF"/>
<stop offset="1" stop-color="#1CF1FF"/>
</linearGradient>
<linearGradient id="paint14_linear" x1="49.4849" y1="8" x2="49.4849" y2="299.906" gradientUnits="userSpaceOnUse">
<stop stop-color="#2B7FFF"/>
<stop offset="1" stop-color="#1CF1FF"/>
</linearGradient>
<linearGradient id="paint15_linear" x1="57.7322" y1="8" x2="57.7322" y2="299.906" gradientUnits="userSpaceOnUse">
<stop stop-color="#2B7FFF"/>
<stop offset="1" stop-color="#1CF1FF"/>
</linearGradient>
</defs>
</svg>
