<svg width="380" height="291" viewBox="0 0 380 291" fill="none" xmlns="http://www.w3.org/2000/svg">
<rect x="-0.5" y="0.5" width="16.5417" height="282" rx="3.5" transform="matrix(-1 0 0 1 379 8)" fill="url(#paint0_linear)" stroke="#30304D"/>
<circle r="1.5" transform="matrix(-1 0 0 1 371.5 11.5)" fill="#30304D"/>
<rect width="1" height="6" transform="matrix(-1 0 0 1 372 5)" fill="white"/>
<rect x="-0.5" y="0.5" width="16.5417" height="282" rx="3.5" transform="matrix(-1 0 0 1 358.952 8)" fill="url(#paint1_linear)" stroke="#30304D"/>
<circle r="1.5" transform="matrix(-1 0 0 1 351.452 11.5)" fill="#30304D"/>
<rect width="1" height="6" transform="matrix(-1 0 0 1 351.952 5)" fill="white"/>
<rect x="-0.5" y="0.5" width="16.5417" height="282" rx="3.5" transform="matrix(-1 0 0 1 338.905 8)" fill="url(#paint2_linear)" stroke="#30304D"/>
<circle r="1.5" transform="matrix(-1 0 0 1 331.405 11.5)" fill="#30304D"/>
<rect width="1" height="6" transform="matrix(-1 0 0 1 331.905 5)" fill="white"/>
<rect x="-0.5" y="0.5" width="16.5417" height="282" rx="3.5" transform="matrix(-1 0 0 1 318.857 8)" fill="url(#paint3_linear)" stroke="#30304D"/>
<circle r="1.5" transform="matrix(-1 0 0 1 311.357 11.5)" fill="#30304D"/>
<rect width="1" height="6" transform="matrix(-1 0 0 1 311.857 5)" fill="white"/>
<rect x="-0.5" y="0.5" width="16.5417" height="282" rx="3.5" transform="matrix(-1 0 0 1 298.81 8)" fill="url(#paint4_linear)" stroke="#30304D"/>
<circle r="1.5" transform="matrix(-1 0 0 1 291.31 11.5)" fill="#30304D"/>
<rect width="1" height="6" transform="matrix(-1 0 0 1 291.81 5)" fill="white"/>
<rect x="-0.5" y="0.5" width="16.5417" height="282" rx="3.5" transform="matrix(-1 0 0 1 278.762 8)" fill="url(#paint5_linear)" stroke="#30304D"/>
<circle r="1.5" transform="matrix(-1 0 0 1 271.262 11.5)" fill="#30304D"/>
<rect width="1" height="6" transform="matrix(-1 0 0 1 271.762 5)" fill="white"/>
<rect x="-0.5" y="0.5" width="16.5417" height="282" rx="3.5" transform="matrix(-1 0 0 1 258.714 8)" fill="url(#paint6_linear)" stroke="#30304D"/>
<circle r="1.5" transform="matrix(-1 0 0 1 251.214 11.5)" fill="#30304D"/>
<rect width="1" height="6" transform="matrix(-1 0 0 1 251.714 5)" fill="white"/>
<rect x="-0.5" y="0.5" width="16.5417" height="282" rx="3.5" transform="matrix(-1 0 0 1 238.666 8)" fill="url(#paint7_linear)" stroke="#30304D"/>
<circle r="1.5" transform="matrix(-1 0 0 1 231.166 11.5)" fill="#30304D"/>
<rect width="1" height="6" transform="matrix(-1 0 0 1 231.666 5)" fill="white"/>
<rect x="0.5" y="8.5" width="16.5417" height="282" rx="3.5" fill="url(#paint8_linear)" stroke="#30304D"/>
<circle cx="8.5" cy="11.5" r="1.5" fill="#30304D"/>
<rect x="8" y="5" width="1" height="6" fill="white"/>
<rect x="20.548" y="8.5" width="16.5417" height="282" rx="3.5" fill="url(#paint9_linear)" stroke="#30304D"/>
<circle cx="28.548" cy="11.5" r="1.5" fill="#30304D"/>
<rect x="28.048" y="5" width="1" height="6" fill="white"/>
<rect x="40.5953" y="8.5" width="16.5417" height="282" rx="3.5" fill="url(#paint10_linear)" stroke="#30304D"/>
<circle cx="48.5953" cy="11.5" r="1.5" fill="#30304D"/>
<rect x="48.0953" y="5" width="1" height="6" fill="white"/>
<rect x="60.6433" y="8.5" width="16.5417" height="282" rx="3.5" fill="url(#paint11_linear)" stroke="#30304D"/>
<circle cx="68.6433" cy="11.5" r="1.5" fill="#30304D"/>
<rect x="68.1433" y="5" width="1" height="6" fill="white"/>
<rect x="80.6905" y="8.5" width="16.5417" height="282" rx="3.5" fill="url(#paint12_linear)" stroke="#30304D"/>
<circle cx="88.6905" cy="11.5" r="1.5" fill="#30304D"/>
<rect x="88.1905" y="5" width="1" height="6" fill="white"/>
<rect x="100.739" y="8.5" width="16.5417" height="282" rx="3.5" fill="url(#paint13_linear)" stroke="#30304D"/>
<circle cx="108.739" cy="11.5" r="1.5" fill="#30304D"/>
<rect x="108.239" y="5" width="1" height="6" fill="white"/>
<rect x="120.786" y="8.5" width="16.5417" height="282" rx="3.5" fill="url(#paint14_linear)" stroke="#30304D"/>
<circle cx="128.786" cy="11.5" r="1.5" fill="#30304D"/>
<rect x="128.286" y="5" width="1" height="6" fill="white"/>
<rect x="140.834" y="8.5" width="16.5417" height="282" rx="3.5" fill="url(#paint15_linear)" stroke="#30304D"/>
<circle cx="148.834" cy="11.5" r="1.5" fill="#30304D"/>
<rect x="148.334" y="5" width="1" height="6" fill="white"/>
<rect width="380" height="5" rx="2.5" fill="white"/>
<defs>
<linearGradient id="paint0_linear" x1="0" y1="0" x2="3.46408e-06" y2="291.906" gradientUnits="userSpaceOnUse">
<stop stop-color="#2B7FFF"/>
<stop offset="1" stop-color="#1CF1FF"/>
</linearGradient>
<linearGradient id="paint1_linear" x1="0" y1="0" x2="3.46408e-06" y2="291.906" gradientUnits="userSpaceOnUse">
<stop stop-color="#2B7FFF"/>
<stop offset="1" stop-color="#1CF1FF"/>
</linearGradient>
<linearGradient id="paint2_linear" x1="0" y1="0" x2="3.46408e-06" y2="291.906" gradientUnits="userSpaceOnUse">
<stop stop-color="#2B7FFF"/>
<stop offset="1" stop-color="#1CF1FF"/>
</linearGradient>
<linearGradient id="paint3_linear" x1="0" y1="0" x2="3.46408e-06" y2="291.906" gradientUnits="userSpaceOnUse">
<stop stop-color="#2B7FFF"/>
<stop offset="1" stop-color="#1CF1FF"/>
</linearGradient>
<linearGradient id="paint4_linear" x1="0" y1="0" x2="3.46408e-06" y2="291.906" gradientUnits="userSpaceOnUse">
<stop stop-color="#2B7FFF"/>
<stop offset="1" stop-color="#1CF1FF"/>
</linearGradient>
<linearGradient id="paint5_linear" x1="0" y1="0" x2="3.46408e-06" y2="291.906" gradientUnits="userSpaceOnUse">
<stop stop-color="#2B7FFF"/>
<stop offset="1" stop-color="#1CF1FF"/>
</linearGradient>
<linearGradient id="paint6_linear" x1="0" y1="0" x2="3.46408e-06" y2="291.906" gradientUnits="userSpaceOnUse">
<stop stop-color="#2B7FFF"/>
<stop offset="1" stop-color="#1CF1FF"/>
</linearGradient>
<linearGradient id="paint7_linear" x1="0" y1="0" x2="3.46408e-06" y2="291.906" gradientUnits="userSpaceOnUse">
<stop stop-color="#2B7FFF"/>
<stop offset="1" stop-color="#1CF1FF"/>
</linearGradient>
<linearGradient id="paint8_linear" x1="0" y1="8" x2="3.46408e-06" y2="299.906" gradientUnits="userSpaceOnUse">
<stop stop-color="#2B7FFF"/>
<stop offset="1" stop-color="#1CF1FF"/>
</linearGradient>
<linearGradient id="paint9_linear" x1="20.048" y1="8" x2="20.048" y2="299.906" gradientUnits="userSpaceOnUse">
<stop stop-color="#2B7FFF"/>
<stop offset="1" stop-color="#1CF1FF"/>
</linearGradient>
<linearGradient id="paint10_linear" x1="40.0953" y1="8" x2="40.0953" y2="299.906" gradientUnits="userSpaceOnUse">
<stop stop-color="#2B7FFF"/>
<stop offset="1" stop-color="#1CF1FF"/>
</linearGradient>
<linearGradient id="paint11_linear" x1="60.1433" y1="8" x2="60.1433" y2="299.906" gradientUnits="userSpaceOnUse">
<stop stop-color="#2B7FFF"/>
<stop offset="1" stop-color="#1CF1FF"/>
</linearGradient>
<linearGradient id="paint12_linear" x1="80.1905" y1="8" x2="80.1905" y2="299.906" gradientUnits="userSpaceOnUse">
<stop stop-color="#2B7FFF"/>
<stop offset="1" stop-color="#1CF1FF"/>
</linearGradient>
<linearGradient id="paint13_linear" x1="100.239" y1="8" x2="100.239" y2="299.906" gradientUnits="userSpaceOnUse">
<stop stop-color="#2B7FFF"/>
<stop offset="1" stop-color="#1CF1FF"/>
</linearGradient>
<linearGradient id="paint14_linear" x1="120.286" y1="8" x2="120.286" y2="299.906" gradientUnits="userSpaceOnUse">
<stop stop-color="#2B7FFF"/>
<stop offset="1" stop-color="#1CF1FF"/>
</linearGradient>
<linearGradient id="paint15_linear" x1="140.334" y1="8" x2="140.334" y2="299.906" gradientUnits="userSpaceOnUse">
<stop stop-color="#2B7FFF"/>
<stop offset="1" stop-color="#1CF1FF"/>
</linearGradient>
</defs>
</svg>
