<svg width="380" height="291" viewBox="0 0 380 291" fill="none" xmlns="http://www.w3.org/2000/svg">
<rect x="-0.5" y="0.5" width="13.1" height="282" rx="3.5" transform="matrix(-1 0 0 1 379 8)" fill="url(#paint0_linear)" stroke="#30304D"/>
<circle r="1.5" transform="matrix(-1 0 0 1 373.5 11.5)" fill="#30304D"/>
<rect width="1" height="6" transform="matrix(-1 0 0 1 374 5)" fill="white"/>
<rect x="-0.5" y="0.5" width="13.1" height="282" rx="3.5" transform="matrix(-1 0 0 1 362.886 8)" fill="url(#paint1_linear)" stroke="#30304D"/>
<circle r="1.5" transform="matrix(-1 0 0 1 357.386 11.5)" fill="#30304D"/>
<rect width="1" height="6" transform="matrix(-1 0 0 1 357.886 5)" fill="white"/>
<rect x="-0.5" y="0.5" width="13.1" height="282" rx="3.5" transform="matrix(-1 0 0 1 346.772 8)" fill="url(#paint2_linear)" stroke="#30304D"/>
<circle r="1.5" transform="matrix(-1 0 0 1 341.272 11.5)" fill="#30304D"/>
<rect width="1" height="6" transform="matrix(-1 0 0 1 341.772 5)" fill="white"/>
<rect x="-0.5" y="0.5" width="13.1" height="282" rx="3.5" transform="matrix(-1 0 0 1 330.657 8)" fill="url(#paint3_linear)" stroke="#30304D"/>
<circle r="1.5" transform="matrix(-1 0 0 1 325.157 11.5)" fill="#30304D"/>
<rect width="1" height="6" transform="matrix(-1 0 0 1 325.657 5)" fill="white"/>
<rect x="-0.5" y="0.5" width="13.1" height="282" rx="3.5" transform="matrix(-1 0 0 1 314.543 8)" fill="url(#paint4_linear)" stroke="#30304D"/>
<circle r="1.5" transform="matrix(-1 0 0 1 309.043 11.5)" fill="#30304D"/>
<rect width="1" height="6" transform="matrix(-1 0 0 1 309.543 5)" fill="white"/>
<rect x="-0.5" y="0.5" width="13.1" height="282" rx="3.5" transform="matrix(-1 0 0 1 298.429 8)" fill="url(#paint5_linear)" stroke="#30304D"/>
<circle r="1.5" transform="matrix(-1 0 0 1 292.929 11.5)" fill="#30304D"/>
<rect width="1" height="6" transform="matrix(-1 0 0 1 293.429 5)" fill="white"/>
<rect x="-0.5" y="0.5" width="13.1" height="282" rx="3.5" transform="matrix(-1 0 0 1 282.315 8)" fill="url(#paint6_linear)" stroke="#30304D"/>
<circle r="1.5" transform="matrix(-1 0 0 1 276.815 11.5)" fill="#30304D"/>
<rect width="1" height="6" transform="matrix(-1 0 0 1 277.315 5)" fill="white"/>
<rect x="-0.5" y="0.5" width="13.1" height="282" rx="3.5" transform="matrix(-1 0 0 1 266.2 8)" fill="url(#paint7_linear)" stroke="#30304D"/>
<circle r="1.5" transform="matrix(-1 0 0 1 260.7 11.5)" fill="#30304D"/>
<rect width="1" height="6" transform="matrix(-1 0 0 1 261.2 5)" fill="white"/>
<rect x="0.5" y="8.5" width="13.1" height="282" rx="3.5" fill="url(#paint8_linear)" stroke="#30304D"/>
<circle cx="6.5" cy="11.5" r="1.5" fill="#30304D"/>
<rect x="6" y="5" width="1" height="6" fill="white"/>
<rect x="16.6146" y="8.5" width="13.1" height="282" rx="3.5" fill="url(#paint9_linear)" stroke="#30304D"/>
<circle cx="22.6146" cy="11.5" r="1.5" fill="#30304D"/>
<rect x="22.1146" y="5" width="1" height="6" fill="white"/>
<rect x="32.7284" y="8.5" width="13.1" height="282" rx="3.5" fill="url(#paint10_linear)" stroke="#30304D"/>
<circle cx="38.7284" cy="11.5" r="1.5" fill="#30304D"/>
<rect x="38.2284" y="5" width="1" height="6" fill="white"/>
<rect x="48.843" y="8.5" width="13.1" height="282" rx="3.5" fill="url(#paint11_linear)" stroke="#30304D"/>
<circle cx="54.843" cy="11.5" r="1.5" fill="#30304D"/>
<rect x="54.343" y="5" width="1" height="6" fill="white"/>
<rect x="64.9569" y="8.5" width="13.1" height="282" rx="3.5" fill="url(#paint12_linear)" stroke="#30304D"/>
<circle cx="70.9569" cy="11.5" r="1.5" fill="#30304D"/>
<rect x="70.4569" y="5" width="1" height="6" fill="white"/>
<rect x="81.0715" y="8.5" width="13.1" height="282" rx="3.5" fill="url(#paint13_linear)" stroke="#30304D"/>
<circle cx="87.0715" cy="11.5" r="1.5" fill="#30304D"/>
<rect x="86.5715" y="5" width="1" height="6" fill="white"/>
<rect x="97.1855" y="8.5" width="13.1" height="282" rx="3.5" fill="url(#paint14_linear)" stroke="#30304D"/>
<circle cx="103.186" cy="11.5" r="1.5" fill="#30304D"/>
<rect x="102.686" y="5" width="1" height="6" fill="white"/>
<rect x="113.3" y="8.5" width="13.1" height="282" rx="3.5" fill="url(#paint15_linear)" stroke="#30304D"/>
<circle cx="119.3" cy="11.5" r="1.5" fill="#30304D"/>
<rect x="118.8" y="5" width="1" height="6" fill="white"/>
<rect width="380" height="5" rx="2.5" fill="white"/>
<defs>
<linearGradient id="paint0_linear" x1="0" y1="0" x2="4.30964e-06" y2="291.906" gradientUnits="userSpaceOnUse">
<stop stop-color="#2B7FFF"/>
<stop offset="1" stop-color="#1CF1FF"/>
</linearGradient>
<linearGradient id="paint1_linear" x1="0" y1="0" x2="4.30964e-06" y2="291.906" gradientUnits="userSpaceOnUse">
<stop stop-color="#2B7FFF"/>
<stop offset="1" stop-color="#1CF1FF"/>
</linearGradient>
<linearGradient id="paint2_linear" x1="0" y1="0" x2="4.30964e-06" y2="291.906" gradientUnits="userSpaceOnUse">
<stop stop-color="#2B7FFF"/>
<stop offset="1" stop-color="#1CF1FF"/>
</linearGradient>
<linearGradient id="paint3_linear" x1="0" y1="0" x2="4.30964e-06" y2="291.906" gradientUnits="userSpaceOnUse">
<stop stop-color="#2B7FFF"/>
<stop offset="1" stop-color="#1CF1FF"/>
</linearGradient>
<linearGradient id="paint4_linear" x1="0" y1="0" x2="4.30964e-06" y2="291.906" gradientUnits="userSpaceOnUse">
<stop stop-color="#2B7FFF"/>
<stop offset="1" stop-color="#1CF1FF"/>
</linearGradient>
<linearGradient id="paint5_linear" x1="0" y1="0" x2="4.30964e-06" y2="291.906" gradientUnits="userSpaceOnUse">
<stop stop-color="#2B7FFF"/>
<stop offset="1" stop-color="#1CF1FF"/>
</linearGradient>
<linearGradient id="paint6_linear" x1="0" y1="0" x2="4.30964e-06" y2="291.906" gradientUnits="userSpaceOnUse">
<stop stop-color="#2B7FFF"/>
<stop offset="1" stop-color="#1CF1FF"/>
</linearGradient>
<linearGradient id="paint7_linear" x1="0" y1="0" x2="4.30964e-06" y2="291.906" gradientUnits="userSpaceOnUse">
<stop stop-color="#2B7FFF"/>
<stop offset="1" stop-color="#1CF1FF"/>
</linearGradient>
<linearGradient id="paint8_linear" x1="0" y1="8" x2="4.30964e-06" y2="299.906" gradientUnits="userSpaceOnUse">
<stop stop-color="#2B7FFF"/>
<stop offset="1" stop-color="#1CF1FF"/>
</linearGradient>
<linearGradient id="paint9_linear" x1="16.1146" y1="8" x2="16.1146" y2="299.906" gradientUnits="userSpaceOnUse">
<stop stop-color="#2B7FFF"/>
<stop offset="1" stop-color="#1CF1FF"/>
</linearGradient>
<linearGradient id="paint10_linear" x1="32.2284" y1="8" x2="32.2284" y2="299.906" gradientUnits="userSpaceOnUse">
<stop stop-color="#2B7FFF"/>
<stop offset="1" stop-color="#1CF1FF"/>
</linearGradient>
<linearGradient id="paint11_linear" x1="48.343" y1="8" x2="48.343" y2="299.906" gradientUnits="userSpaceOnUse">
<stop stop-color="#2B7FFF"/>
<stop offset="1" stop-color="#1CF1FF"/>
</linearGradient>
<linearGradient id="paint12_linear" x1="64.4569" y1="8" x2="64.4569" y2="299.906" gradientUnits="userSpaceOnUse">
<stop stop-color="#2B7FFF"/>
<stop offset="1" stop-color="#1CF1FF"/>
</linearGradient>
<linearGradient id="paint13_linear" x1="80.5715" y1="8" x2="80.5715" y2="299.906" gradientUnits="userSpaceOnUse">
<stop stop-color="#2B7FFF"/>
<stop offset="1" stop-color="#1CF1FF"/>
</linearGradient>
<linearGradient id="paint14_linear" x1="96.6855" y1="8" x2="96.6856" y2="299.906" gradientUnits="userSpaceOnUse">
<stop stop-color="#2B7FFF"/>
<stop offset="1" stop-color="#1CF1FF"/>
</linearGradient>
<linearGradient id="paint15_linear" x1="112.8" y1="8" x2="112.8" y2="299.906" gradientUnits="userSpaceOnUse">
<stop stop-color="#2B7FFF"/>
<stop offset="1" stop-color="#1CF1FF"/>
</linearGradient>
</defs>
</svg>
