<svg width="100" height="100" viewBox="0 0 100 100" fill="none" xmlns="http://www.w3.org/2000/svg">
<rect width="100" height="100" rx="20" fill="#FF7D3B"/>
<path d="M79.2257 50.5553C79.2257 54.3083 78.4697 58.0245 77.0008 61.4919C75.532 64.9592 73.379 68.1097 70.6649 70.7635C67.9508 73.4172 64.7287 75.5223 61.1826 76.9585C57.6365 78.3948 53.8358 79.134 49.9975 79.134C46.1592 79.134 42.3584 78.3948 38.8123 76.9585C35.2662 75.5223 32.0441 73.4172 29.33 70.7635C26.6159 68.1097 24.463 64.9592 22.9941 61.4919C21.5252 58.0245 20.7692 54.3083 20.7692 50.5553" stroke="white" stroke-width="12"/>
<path d="M59.1166 21.8462C59.1166 18.331 61.9662 15.4814 65.4814 15.4814V15.4814C68.9965 15.4814 71.8462 18.331 71.8462 21.8462V41.4621H59.1166V21.8462Z" fill="white"/>
<path d="M28 21.7494C28 18.2342 30.8496 15.3846 34.3648 15.3846V15.3846C37.8799 15.3846 40.7295 18.2342 40.7295 21.7494V41.5385H28V21.7494Z" fill="white"/>
</svg>
