<svg width="306" height="306" viewBox="0 0 306 306" fill="none" xmlns="http://www.w3.org/2000/svg">
<path d="M298.5 65C298.5 66.933 300.067 68.5 302 68.5C303.933 68.5 305.5 66.933 305.5 65H298.5ZM241 0.5C239.067 0.5 237.5 2.067 237.5 4C237.5 5.933 239.067 7.5 241 7.5V0.5ZM298.5 34V65H305.5V34H298.5ZM241 7.5H272V0.5H241V7.5ZM305.5 34C305.5 15.4985 290.502 0.5 272 0.5V7.5C286.636 7.5 298.5 19.3645 298.5 34H305.5Z" fill="white"/>
<path d="M7.5 241C7.5 239.067 5.93299 237.5 4 237.5C2.067 237.5 0.499998 239.067 0.499998 241L7.5 241ZM65 305.5C66.933 305.5 68.5 303.933 68.5 302C68.5 300.067 66.933 298.5 65 298.5L65 305.5ZM7.5 272L7.5 241L0.499998 241L0.500001 272L7.5 272ZM65 298.5L34 298.5L34 305.5L65 305.5L65 298.5ZM0.500001 272C0.500003 290.502 15.4985 305.5 34 305.5L34 298.5C19.3645 298.5 7.5 286.636 7.5 272L0.500001 272Z" fill="white"/>
<path d="M65 7.5C66.933 7.5 68.5 5.933 68.5 4C68.5 2.067 66.933 0.500001 65 0.500001L65 7.5ZM0.5 65C0.5 66.933 2.067 68.5 4 68.5C5.933 68.5 7.5 66.933 7.5 65L0.5 65ZM34 7.5L65 7.5L65 0.500001L34 0.500003L34 7.5ZM7.5 65L7.5 34L0.499999 34L0.5 65L7.5 65ZM34 0.500003C15.4985 0.500003 0.499998 15.4985 0.499999 34L7.5 34C7.5 19.3645 19.3645 7.5 34 7.5L34 0.500003Z" fill="white"/>
<path d="M241 302L272 302C288.569 302 302 288.569 302 272L302 241" stroke="white" stroke-width="7" stroke-linecap="round"/>
<path d="M200.833 211.667V199.833H165.333V164.333H200.833V188H224.5V211.667H212.667V235.333H189V259H165.333V223.5H189V211.667H200.833ZM260 259H212.667V235.333H236.333V211.667H260V259ZM47 46H141.667V140.667H47V46ZM70.6667 69.6667V117H118V69.6667H70.6667ZM165.333 46H260V140.667H165.333V46ZM189 69.6667V117H236.333V69.6667H189ZM47 164.333H141.667V259H47V164.333ZM70.6667 188V235.333H118V188H70.6667ZM224.5 164.333H260V188H224.5V164.333ZM82.5 81.5H106.167V105.167H82.5V81.5ZM82.5 199.833H106.167V223.5H82.5V199.833ZM200.833 81.5H224.5V105.167H200.833V81.5Z" fill="white"/>
</svg>
