<svg width="304" height="304" viewBox="0 0 304 304" fill="none" xmlns="http://www.w3.org/2000/svg">
<rect x="138.27" y="187.806" width="27.459" height="20.6831" rx="2.5" stroke="white"/>
<rect x="135" y="203.568" width="33.8798" height="50.1421" rx="2" fill="white"/>
<path d="M151.809 213.898C151.901 213.898 151.99 213.947 152.031 214.029L153.618 216.612C153.641 216.652 153.659 216.693 153.659 216.742C153.659 216.783 153.65 216.832 153.627 216.873C153.576 216.954 153.493 217.003 153.395 217.003L152.34 217.003L152.34 223.924C153.514 223.19 155.509 222.75 155.509 221.906L155.509 221.132L154.715 221.132C154.567 221.132 154.451 221.019 154.451 220.874L154.451 218.291C154.451 218.146 154.567 218.033 154.715 218.033L157.357 218.033C157.505 218.033 157.621 218.146 157.621 218.291L157.621 220.874C157.621 221.019 157.505 221.132 157.357 221.132L156.565 221.132L156.565 221.906C156.565 224.092 152.34 224.257 152.34 225.522L152.34 228.43C153.247 228.664 153.926 229.47 153.926 230.43C153.923 231.57 152.974 232.497 151.809 232.497C150.644 232.497 149.695 231.57 149.695 230.43C149.695 229.47 150.371 228.662 151.281 228.43C151.281 227.296 151.563 227.157 149.49 226.267C146.848 225.104 147.056 224.582 147.056 223.109C146.436 222.892 146 222.326 146 221.648C146 220.793 146.709 220.097 147.586 220.097C148.464 220.097 149.173 220.79 149.173 221.648C149.173 222.326 148.734 222.892 148.117 223.109L148.117 223.973C148.117 224.817 150.116 225.258 151.287 225.991L151.287 217L150.231 217C150.134 217 150.05 216.951 150 216.87C149.95 216.789 149.959 216.684 150.009 216.612L151.595 214.029C151.628 213.947 151.717 213.898 151.809 213.898Z" fill="#30304D"/>
<rect x="160.809" y="190.016" width="2.71038" height="8.13115" rx="1.35519" fill="white"/>
<rect x="152.677" y="190.016" width="2.71038" height="8.13115" rx="1.35519" fill="white"/>
<rect x="144.546" y="190.016" width="2.71038" height="8.13115" rx="1.35519" fill="white"/>
<rect x="156.743" y="190.016" width="2.71038" height="8.13115" rx="1.35519" fill="white"/>
<rect x="148.612" y="190.016" width="2.71038" height="8.13115" rx="1.35519" fill="white"/>
<rect x="140.481" y="190.016" width="2.71038" height="8.13115" rx="1.35519" fill="white"/>
<path d="M152 243.567V285C152 294.389 159.611 302 169 302H179.426C188.814 302 196.426 294.389 196.426 285V229C196.426 219.611 204.037 212 213.426 212H222C231.389 212 239 219.611 239 229V270.433" stroke="white" stroke-width="4"/>
<path d="M28 3V157C28 168.046 36.9543 177 48 177H256C267.046 177 276 168.046 276 157V3" stroke="white" stroke-width="6"/>
<circle cx="144" cy="79" r="2" fill="white"/>
<circle cx="152" cy="79" r="2" fill="white" fill-opacity="0.5"/>
<circle cx="160" cy="79" r="2" fill="white" fill-opacity="0.5"/>
<rect x="43" y="97" width="218" height="64" rx="10" fill="#30304D"/>
<rect x="55" y="107" width="42" height="43" rx="6" fill="#777794"/>
<rect x="106" y="107" width="42" height="43" rx="6" fill="#777794"/>
<rect x="157" y="107" width="42" height="43" rx="6" fill="#777794"/>
<rect x="208" y="107" width="42" height="43" rx="6" fill="#777794"/>
</svg>
